<svg id="Layer_1" data-name="Layer 1" xmlns="http://www.w3.org/2000/svg" viewBox="0 0 1690.022 1228.047"><defs><style>.cls-1{fill:#077aff;}.cls-2{fill:#015dfe;}.cls-3{fill:#d8c1ad;}.cls-4{fill:#2852f9;}.cls-5{fill:#141414;}.cls-6{fill:#333;}.cls-7{fill:#397a6f;}.cls-8{fill:#1d3d37;}.cls-9{fill:#2b535a;}.cls-10{fill:#5ab089;}.cls-11{fill:#fcd1b9;}.cls-12,.cls-63,.cls-71{fill:none;stroke-miterlimit:10;}.cls-12,.cls-71{stroke:#000;}.cls-12{stroke-width:6px;}.cls-13{fill:#2a474d;}.cls-14{fill:#2c364c;}.cls-15{fill:#253d6d;}.cls-16{fill:#00e1ff;}.cls-17{fill:#bdf9fd;}.cls-18{fill:#6e7d9f;}.cls-19{fill:#ffd41d;}.cls-20{fill:#4a4263;}.cls-21{fill:#352c49;}.cls-22{fill:#413452;}.cls-23{fill:#772308;}.cls-24{fill:#a53614;}.cls-25{fill:#cc4211;}.cls-26{fill:#ff7619;}.cls-27{fill:#7c32fa;}.cls-28{fill:#bbf200;}.cls-29{fill:#00c0f4;}.cls-30{fill:#f8cd00;}.cls-31{fill:#fbe701;}.cls-32{fill:#00bfff;}.cls-33{fill:#ffe700;}.cls-34{fill:#3a0064;}.cls-35{fill:#ff9e00;}.cls-36{fill:#02ff9a;}.cls-37{fill:#b5f600;}.cls-38{fill:#c6f400;}.cls-39{fill:#14e00b;}.cls-40{fill:#f7ffc5;}.cls-41{fill:#1bce3a;}.cls-42{fill:#12d128;}.cls-43{fill:#fde916;}.cls-44{fill:#78e92d;}.cls-45{fill:#ffff13;}.cls-46{fill:#5e1a90;}.cls-47{fill:#fc5915;}.cls-48{fill:#ffb915;}.cls-49{fill:#15d089;}.cls-50{fill:#13cf87;}.cls-51{fill:#fff;}.cls-52{fill:#79e827;}.cls-53{fill:#5a6a92;}.cls-54{fill:#572464;}.cls-55{fill:#fe5235;}.cls-56{fill:#ff713b;}.cls-57{fill:#ff512f;}.cls-58{fill:#ff8c33;}.cls-59{fill:#9ce8ff;}.cls-60{fill:#ff9641;}.cls-61{fill:#ff6d31;}.cls-62{fill:#463299;}.cls-63{stroke:#ff5031;stroke-width:2px;}.cls-63,.cls-71{stroke-linecap:round;}.cls-64{fill:#fa925c;}.cls-65{fill:#60235d;}.cls-66{fill:#47267d;}.cls-67{fill:#fdffff;}.cls-68{fill:#9fadce;}.cls-69{fill:#455a85;}.cls-70{fill:#186c7f;}.cls-71{stroke-width:5px;}.cls-72{fill:#f5ff73;}.cls-73{fill:#fffdec;opacity:0.2;}.cls-74{fill:#6d1641;}.cls-75{fill:#ab3b5a;}.cls-76{fill:#e4954f;}.cls-77{fill:#e37c44;}.cls-78{fill:#f0e796;}.cls-79{fill:#f7f8e6;}.cls-80{fill:#1e1d30;}.cls-81{fill:#312b31;}</style></defs><title>dive_down</title><rect class="cls-1" width="1690.022" height="946.725" rx="413.011"/><rect class="cls-2" y="191.345" width="1690.022" height="1022.369" rx="413.011"/><path class="cls-3" d="M4199.384,1002.912a11.83,11.83,0,0,0,.209-2.176V738.319a12.036,12.036,0,0,0-.077-1.323c.3-64.069-82.379-105.975-139.967-121.447-159.033-42.725-314.9-2.109-314.9-2.109s-7.2,1.276-15.824,3.692c-51.893,14.539-240.283,70.346-297.274,247.425-66.462,206.506-524.571,166.154-524.571,166.154s-301.9,58.37-364.268,152.638a416.255,416.255,0,0,0,100.429,142.169c73.711,68.08,172.069,109.815,279.706,109.815h864c227.155,0,413.01-185.855,413.01-413.011h0C4199.857,1015.815,4199.687,1009.347,4199.384,1002.912Z" transform="translate(-2509.835 -207.286)"/><path class="cls-4" d="M2906.979,1030.711s458.109,40.352,524.571-166.154c56.991-177.079,243.132-240.708,295.026-255.246h-803.73c-227.156,0-413.011,185.854-413.011,413.01h0a409.2,409.2,0,0,0,32.876,161.027C2605.08,1089.081,2906.979,1030.711,2906.979,1030.711Z" transform="translate(-2509.835 -207.286)"/><rect class="cls-5" x="2737.491" y="489.487" width="146.596" height="37.608" rx="18.272" transform="translate(-1609.281 -1822.646) rotate(37.778)"/><rect class="cls-5" x="2828.771" y="530.873" width="166.419" height="45.603" rx="22.802" transform="matrix(0.967, 0.255, -0.255, 0.967, -2272.085, -932.156)"/><rect class="cls-5" x="2712.357" y="528.617" width="147.897" height="42.469" rx="20.003" transform="translate(-1949.718 -1420.931) rotate(27.221)"/><rect class="cls-5" x="2811.093" y="549.668" width="155.625" height="54.864" rx="27.432" transform="translate(-2391.3 -632.116) rotate(8.586)"/><rect class="cls-6" x="2950.33" y="565.837" width="250.33" height="107.22" rx="45.494" transform="translate(-2083.49 -1268.43) rotate(21.003)"/><ellipse class="cls-7" cx="3992.278" cy="565.384" rx="53.261" ry="38.571" transform="translate(577.611 4287.376) rotate(-85.093)"/><ellipse class="cls-7" cx="3983.165" cy="671.515" rx="53.261" ry="38.571" transform="translate(463.536 4375.349) rotate(-85.093)"/><path class="cls-7" d="M3940.419,831.207l6.05-70.463c5.995-6.617,10.216-16.318,11.168-27.4s-1.555-21.357-6.334-28.9l6.166-71.815a52.693,52.693,0,0,0,2.9-33.812l3.11-36.222c.268-3.117,2.334-5.509,4.591-5.315l51.6,4.43c2.258.194,3.886,2.9,3.618,6.021l-2.6,30.313a50.948,50.948,0,0,0-4.238,49.365l-7.782,62.056c-7.605,6.469-10.381,14.006-11.488,26.9s2.277,25.8,8.668,33.47l-5.33,63.137c-5.73,6.6-9.741,16.072-10.666,26.842s1.413,20.789,5.934,28.268l-1.843,21.462c-.267,3.117-2.333,5.509-4.591,5.315l-51.6-4.43c-2.257-.194-3.885-2.9-3.618-6.02l2.047-23.836a50.95,50.95,0,0,0,4.238-49.366Z" transform="translate(-2509.835 -207.286)"/><ellipse class="cls-7" cx="3972.256" cy="798.573" rx="53.261" ry="38.571" transform="translate(326.968 4480.668) rotate(-85.093)"/><ellipse class="cls-7" cx="3962.053" cy="917.409" rx="53.261" ry="38.571" transform="translate(199.237 4579.173) rotate(-85.093)"/><path class="cls-8" d="M3954.6,927.264c-.12-.785-2.751-19.6,12.744-51.877.124-.284,16.047-37.021.469-65.36-17-30.924,5.868-88.026,6.849-90.441l.109-.239c.183-.356,18.094-35.813,7.294-56.01-1.109-1.875-15.078-26.879,6.2-61.986,14.68-24.225-.525-53.26-.68-53.551l5.291-2.829c.7,1.309,16.953,32.373.52,59.489-19.79,32.656-6.293,55.61-6.155,55.838l.078.137c12.125,22.524-5.694,58.664-7.14,61.521-1.131,2.846-22.395,57.365-7.106,85.18,17.027,30.975.434,69.156-.281,70.767-14.633,30.487-12.282,48.293-12.257,48.469Z" transform="translate(-2509.835 -207.286)"/><path class="cls-9" d="M3906.906,961.382a7,7,0,1,1,2.286-13.812,50.076,50.076,0,0,0,57.514-41.182l.023-.132,29.735-160.544a7,7,0,0,1,13.766,2.55l-29.724,160.481A64.093,64.093,0,0,1,3906.906,961.382Z" transform="translate(-2509.835 -207.286)"/><path class="cls-9" d="M3975.88,905.824a7,7,0,1,1,2.286-13.812,50.075,50.075,0,0,0,57.513-41.182,7,7,0,0,1,13.813,2.286A64.093,64.093,0,0,1,3975.88,905.824Z" transform="translate(-2509.835 -207.286)"/><path class="cls-9" d="M3993.861,802.712a7,7,0,1,1,2.286-13.812,50.076,50.076,0,0,0,57.514-41.181A7,7,0,1,1,4067.473,750,64.093,64.093,0,0,1,3993.861,802.712Z" transform="translate(-2509.835 -207.286)"/><path class="cls-9" d="M3985.432,848.863a64.093,64.093,0,0,1-52.708-73.612,7,7,0,0,1,13.813,2.286,50.074,50.074,0,0,0,41.181,57.513,7,7,0,0,1-2.286,13.813Z" transform="translate(-2509.835 -207.286)"/><path class="cls-9" d="M3876.23,994.733a46.858,46.858,0,0,1-45.273-35l-30.607-109.64a7,7,0,0,1,13.484-3.764l30.659,109.829a32.814,32.814,0,0,0,39.937,23.524,7,7,0,1,1,3.505,13.554A46.735,46.735,0,0,1,3876.23,994.733Z" transform="translate(-2509.835 -207.286)"/><path class="cls-9" d="M3826.8,959.9a46.832,46.832,0,0,1-45.2-35.081,7,7,0,0,1,13.554-3.506,32.774,32.774,0,0,0,39.937,23.523,7,7,0,0,1,3.506,13.555A47.121,47.121,0,0,1,3826.8,959.9Z" transform="translate(-2509.835 -207.286)"/><path class="cls-9" d="M3805.878,889.9a46.832,46.832,0,0,1-45.2-35.081,7,7,0,0,1,13.554-3.5,32.813,32.813,0,0,0,39.937,23.523,7,7,0,1,1,3.506,13.553A47.071,47.071,0,0,1,3805.878,889.9Z" transform="translate(-2509.835 -207.286)"/><path class="cls-9" d="M3824.635,920.157a7,7,0,0,1-1.748-13.778,32.774,32.774,0,0,0,23.522-39.937,7,7,0,0,1,13.555-3.5,46.775,46.775,0,0,1-33.572,57A7,7,0,0,1,3824.635,920.157Z" transform="translate(-2509.835 -207.286)"/><ellipse class="cls-10" cx="3861.623" cy="616.336" rx="38.571" ry="45.663" transform="translate(-2548.404 125.317) rotate(-4.907)"/><ellipse class="cls-10" cx="3869.435" cy="707.327" rx="38.571" ry="45.663" transform="translate(-2556.159 126.319) rotate(-4.907)"/><path class="cls-10" d="M3910.2,843.886l-5.187-60.412a37.794,37.794,0,0,1-4.144-48.266l-5.286-61.57a39.105,39.105,0,0,1-2.489-28.989l-2.667-31.055c-.229-2.672-2.264-4.7-4.521-4.507l-51.6,4.431c-2.258.194-3.917,2.539-3.688,5.212l2.232,25.989a38.3,38.3,0,0,1,3.634,42.323l7.019,53.173c7.518,5.461,10.2,11.9,11.149,22.949s-2.588,22.173-9.066,28.836l4.557,54.131a37.912,37.912,0,0,1,4.057,47.249l1.58,18.4c.229,2.673,2.264,4.7,4.521,4.507l51.6-4.43c2.258-.194,3.917-2.54,3.688-5.212l-1.755-20.436a38.3,38.3,0,0,1-3.634-42.323Z" transform="translate(-2509.835 -207.286)"/><ellipse class="cls-10" cx="3878.788" cy="816.26" rx="38.571" ry="45.663" transform="translate(-2565.444 127.519) rotate(-4.907)"/><ellipse class="cls-10" cx="3887.536" cy="918.144" rx="38.571" ry="45.663" transform="translate(-2574.127 128.64) rotate(-4.907)"/><path class="cls-8" d="M3893.827,923.257l-5.712-1.836c.033-.111,3.127-11.468-10.7-36.694l-.047-.089c-.7-1.388-17-34.33.595-61.442,15.363-23.679-4.862-69.627-6.076-72.328-1.547-2.678-18.924-33.682-6.374-53.423l.092-.136c.553-.788,13.517-19.858-5.451-47.067-16.355-23.462.487-50.693,1.212-51.841l5.072,3.2c-.153.245-15.417,25.042-1.362,45.2,21.065,30.216,6.666,52.181,5.464,53.911-10.805,17.12,6.428,46.952,6.6,47.252l.135.261c.959,2.077,23.269,51.175,5.717,78.228-15.449,23.811-.893,54.2-.29,55.435C3897.989,909.806,3894,922.721,3893.827,923.257Z" transform="translate(-2509.835 -207.286)"/><ellipse class="cls-7" cx="2632.184" cy="748.762" rx="38.571" ry="44.853" transform="translate(-2608.404 720.439) rotate(-19.629)"/><ellipse class="cls-7" cx="2662.319" cy="833.256" rx="38.571" ry="44.853" transform="translate(-2635.036 735.472) rotate(-19.629)"/><rect class="cls-11" x="657.182" y="375.869" width="135.828" height="44.44" rx="21.099"/><path class="cls-7" d="M2735.612,952.644l-20.007-56.1a36.619,36.619,0,0,1-15.985-44.82l-20.391-57.173a37.784,37.784,0,0,1-9.6-26.919L2659.344,738.8c-.886-2.482-3.356-3.89-5.49-3.129l-48.781,17.4c-2.134.761-3.156,3.415-2.271,5.9l8.607,24.134a37.07,37.07,0,0,1,14.017,39.3l19.982,48.749c8.623,3.27,12.812,8.7,16.472,18.965s3,21.737-1.606,29.726l17.839,50.289A36.726,36.726,0,0,1,2693.761,1014l6.094,17.086c.885,2.482,3.355,3.89,5.489,3.129l48.782-17.4c2.134-.761,3.156-3.415,2.271-5.9l-6.768-18.977a37.066,37.066,0,0,1-14.017-39.3Z" transform="translate(-2509.835 -207.286)"/><ellipse class="cls-7" cx="2698.396" cy="934.41" rx="38.571" ry="44.853" transform="translate(-2666.92 753.469) rotate(-19.629)"/><ellipse class="cls-7" cx="2732.138" cy="1029.019" rx="38.571" ry="44.853" transform="translate(-2696.74 770.302) rotate(-19.629)"/><path class="cls-8" d="M2735.358,1035.732c-.011-.149-1.363-15.113-21.277-35.856l-.069-.074c-1.026-1.142-24.988-28.331-14.7-58.643,8.967-26.411-21.938-64.829-23.8-67.108-2.181-2.173-26.687-27.231-19.442-49.24l.056-.155c.338-.888,8.115-22.277-16.921-43.249-21.68-18.161-12.142-48.4-11.726-49.682l5.706,1.859c-.088.271-8.671,27.689,9.873,43.223,27.9,23.374,19.428,47.978,18.69,49.943-6.179,18.984,17.842,42.9,18.086,43.136l.2.218c1.443,1.731,35.228,42.74,24.96,72.984-9,26.522,12.546,51.639,13.455,52.678,21.576,22.493,22.849,38.88,22.893,39.567l-5.989.38,2.995-.19Z" transform="translate(-2509.835 -207.286)"/><ellipse class="cls-10" cx="2703.039" cy="590.106" rx="38.571" ry="44.853" transform="translate(-2573.337 352.847) rotate(-11.694)"/><ellipse class="cls-10" cx="2721.222" cy="677.951" rx="38.571" ry="44.853" transform="translate(-2590.765 358.356) rotate(-11.694)"/><path class="cls-10" d="M2777.333,806.313l-12.072-58.323a36.618,36.618,0,0,1-9.645-46.6l-12.3-59.441a37.778,37.778,0,0,1-5.793-27.986l-6.2-29.981c-.534-2.58-2.787-4.315-5.006-3.856l-50.715,10.5c-2.219.46-3.6,2.946-3.063,5.527l5.193,25.09a37.067,37.067,0,0,1,8.457,40.86l13.062,51.041c8.089,4.428,11.488,10.387,13.7,21.057s-.028,21.943-5.695,29.219l10.727,52.271a36.725,36.725,0,0,1,9.442,45.614l3.677,17.764c.534,2.581,2.786,4.316,5,3.857l50.716-10.5c2.219-.459,3.6-2.946,3.063-5.526l-4.084-19.729a37.067,37.067,0,0,1-8.457-40.86Z" transform="translate(-2509.835 -207.286)"/><ellipse class="cls-10" cx="2742.99" cy="783.117" rx="38.571" ry="44.853" transform="translate(-2611.629 364.951) rotate(-11.694)"/><ellipse class="cls-10" cx="2763.349" cy="881.478" rx="38.571" ry="44.853" transform="translate(-2631.143 371.119) rotate(-11.694)"/><path class="cls-8" d="M2761.537,870.178c-.064-.1-6.424-9.659-12.191-20.265-1.635-2.476-20.438-32.013-6.377-59.985,12.527-24.922-12.78-67.237-14.311-69.752-1.861-2.453-22.673-30.653-12.459-51.452l.077-.146c.458-.833,11.112-20.943-10.789-45.171-18.965-20.98-5.344-49.615-4.755-50.824l5.393,2.629c-.124.257-12.409,26.227,3.813,44.172,24.408,27,12.62,50.2,11.618,52.045-8.759,17.986,11.748,44.947,11.956,45.217l.171.247c1.191,1.913,28.991,47.192,14.647,75.73-12.784,25.431,5.888,53.782,6.078,54.065l.147.243c5.655,10.417,11.912,19.825,11.974,19.919Z" transform="translate(-2509.835 -207.286)"/><ellipse class="cls-10" cx="2782.145" cy="967.533" rx="38.571" ry="44.853" transform="translate(-2648.196 376.715) rotate(-11.694)"/><path class="cls-10" d="M2838.256,1095.9l-12.072-58.323a36.619,36.619,0,0,1-9.645-46.6l-12.3-59.44a37.782,37.782,0,0,1-5.793-27.987l-6.2-29.981c-.534-2.58-2.787-4.315-5.005-3.856l-50.716,10.5c-2.219.459-3.6,2.946-3.063,5.526l5.193,25.09a37.069,37.069,0,0,1,8.458,40.86l13.061,51.041c8.089,4.429,11.489,10.387,13.7,21.057s-.028,21.944-5.7,29.22l10.727,52.27a36.726,36.726,0,0,1,9.442,45.615l3.677,17.764c.534,2.58,2.786,4.315,5.005,3.856l50.716-10.5c2.219-.46,3.6-2.946,3.063-5.527l-4.084-19.729a37.07,37.07,0,0,1-8.457-40.859Z" transform="translate(-2509.835 -207.286)"/><ellipse class="cls-10" cx="2803.913" cy="1072.699" rx="38.571" ry="44.853" transform="translate(-2669.06 383.31) rotate(-11.694)"/><path class="cls-12" d="M2764.352,863.48" transform="translate(-2509.835 -207.286)"/><path class="cls-8" d="M2832.52,1178.583l-5.985-.43c.009-.15.736-15.156-16.124-38.45l-.216-.345c-1.249-2.337-30.427-57.569-16.138-85.994,12.838-25.541-6.508-56.333-6.7-56.641-.957-1.5-23.124-36.638-13.322-57.834.5-4.782,4.1-45.032-12.991-69.723l4.934-3.415c19.416,28.046,14.193,72.462,13.961,74.339l-.062.5-.223.453c-8.9,18.119,12.542,52.108,12.759,52.449.878,1.374,21.364,34.007,7.009,62.566-12.533,24.932,14.2,76.895,15.979,80.3C2833.571,1161.547,2832.571,1177.9,2832.52,1178.583Z" transform="translate(-2509.835 -207.286)"/><rect class="cls-11" x="3251.281" y="609.265" width="135.828" height="44.44" rx="21.099" transform="translate(-1529.578 -2014.079) rotate(35.419)"/><path class="cls-13" d="M2639.27,1011.315a33.452,33.452,0,1,1-20.634-63.642" transform="translate(-2509.835 -207.286)"/><path class="cls-13" d="M2664.56,1089.314a37.109,37.109,0,0,1-22.89-70.6" transform="translate(-2509.835 -207.286)"/><path class="cls-13" d="M2634.511,961.826a25.516,25.516,0,1,0-15.74-48.545" transform="translate(-2509.835 -207.286)"/><path class="cls-13" d="M2662.727,1048.854a35.008,35.008,0,0,0-21.594-66.6" transform="translate(-2509.835 -207.286)"/><path class="cls-13" d="M2692.1,1139.433a39.754,39.754,0,0,0-24.522-75.631" transform="translate(-2509.835 -207.286)"/><path class="cls-13" d="M2832.32,943.93a33.452,33.452,0,0,1,8.716-66.334" transform="translate(-2509.835 -207.286)"/><path class="cls-13" d="M2821.638,1025.227a37.108,37.108,0,1,1,9.669-73.584" transform="translate(-2509.835 -207.286)"/><path class="cls-13" d="M2849.289,897.2a25.517,25.517,0,0,0,6.648-50.6" transform="translate(-2509.835 -207.286)"/><path class="cls-13" d="M2837.37,987.906a35.008,35.008,0,0,0,9.121-69.419" transform="translate(-2509.835 -207.286)"/><path class="cls-13" d="M2824.965,1082.315a39.753,39.753,0,0,0,10.358-78.829" transform="translate(-2509.835 -207.286)"/><rect class="cls-11" x="647.165" y="360.041" width="98.374" height="125.011" rx="46.681"/><path class="cls-5" d="M3156.421,613.821a47.094,47.094,0,0,1,46.956-46.956h5.041a47.094,47.094,0,0,1,46.956,46.956v31.835" transform="translate(-2509.835 -207.286)"/><rect class="cls-14" x="656.671" y="393.019" width="90.198" height="55.978" rx="25.121"/><rect class="cls-15" x="665.572" y="396.579" width="88.022" height="52.615" rx="22.945"/><path class="cls-16" d="M3231.88,605.25h-9.134l19.9,46.758a24.7,24.7,0,0,0,13.864-22.132h0A24.7,24.7,0,0,0,3231.88,605.25Z" transform="translate(-2509.835 -207.286)"/><path class="cls-16" d="M3179.561,629.876h0a24.7,24.7,0,0,0,24.626,24.626h16.945l-20.826-48.941A24.715,24.715,0,0,0,3179.561,629.876Z" transform="translate(-2509.835 -207.286)"/><path class="cls-17" d="M3204.187,605.25a24.488,24.488,0,0,0-3.881.311l20.826,48.941h10.748a24.4,24.4,0,0,0,10.762-2.494l-19.9-46.758Z" transform="translate(-2509.835 -207.286)"/><path class="cls-18" d="M3243.649,659.085h-43.121a25.975,25.975,0,0,1-25.945-25.945v-6.725a25.975,25.975,0,0,1,25.945-25.946h43.121a25.975,25.975,0,0,1,25.945,25.946v6.725A25.975,25.975,0,0,1,3243.649,659.085Zm-43.121-52.616a19.968,19.968,0,0,0-19.945,19.946v6.725a19.967,19.967,0,0,0,19.945,19.945h43.121a19.968,19.968,0,0,0,19.945-19.945v-6.725a19.969,19.969,0,0,0-19.945-19.946Z" transform="translate(-2509.835 -207.286)"/><rect class="cls-5" x="691.187" y="436.393" width="42.462" height="41.538" rx="20.769"/><circle class="cls-18" cx="721.253" cy="457.228" r="21.099"/><circle class="cls-5" cx="721.451" cy="457.36" r="13.846"/><circle class="cls-19" cx="721.451" cy="457.36" r="9.099"/><rect class="cls-19" x="3184.537" y="662.686" width="25.347" height="21.267" rx="10.634" transform="translate(-2547.138 928.027) rotate(-20.021)"/><rect class="cls-5" x="673.583" y="456.832" width="20.835" height="20.835" rx="10.418"/><circle class="cls-14" cx="682.434" cy="467.464" r="7.038"/><path class="cls-20" d="M2809.869,1229.6a32.16,32.16,0,0,1-23.1-9.854l-1.623-1.692h109.1a18.062,18.062,0,0,0,18.195-17.884c0-.273-.009-.555-.03-.865h-21.825a17.117,17.117,0,0,1-17.031-17.031v-2.531a16.814,16.814,0,0,1,1.43-6.8,17.178,17.178,0,0,1,15.6-10.235h26.526l3.556-31.052-1.127.117-37.48,1.034-33.079-.593-33.945-.5-2.966-.793a16.981,16.981,0,0,1-12.929-13.737,16.783,16.783,0,0,1-.257-2.839v-2.531c0-.453.032-.9.067-1.345a16.771,16.771,0,0,1,2.248-7.173,17.033,17.033,0,0,1,14.715-8.512h32.157a15.2,15.2,0,0,0,10.137-8.284,14.82,14.82,0,0,0,1.424-6.325v-2.532a14.98,14.98,0,0,0-1.822-7.15,15.527,15.527,0,0,0-5.58-5.772h-24.082a17,17,0,0,1-10.963-4.032,17.283,17.283,0,0,1-4.381-5.674,16.778,16.778,0,0,1-1.686-7.324v-2.531a16.954,16.954,0,0,1,2.316-8.52l.289-.5h61.956a37.87,37.87,0,0,1,35.528,25.132c.24.676.467,1.385.694,2.167a37.348,37.348,0,0,1-.525,22.482h62.176a37.745,37.745,0,0,1,37.7,37.7v13.012a37.576,37.576,0,0,1-12.636,28.1,17.2,17.2,0,0,1,6.989,7.06,31.039,31.039,0,0,1,14.928,26.493c0,17.258-14.264,31.3-31.8,31.3Zm111.519-67.222a15.167,15.167,0,0,0,10.384-14.276v-2.531a15.026,15.026,0,0,0-9.017-13.754Z" transform="translate(-2509.835 -207.286)"/><path class="cls-20" d="M2920.327,1163.714c-.239.055-.482.1-.726.148.244-.045.487-.093.726-.148h-29.741a15.949,15.949,0,0,0-10.783,4.218,16.159,16.159,0,0,0-3.9,5.42,15.867,15.867,0,0,0-1.346,6.393v2.531a15.881,15.881,0,0,0,2.437,8.437,16.044,16.044,0,0,0,13.594,7.594h22.741a17.4,17.4,0,0,1,.114,1.865,19.1,19.1,0,0,1-19.195,18.884H2787.493a30.953,30.953,0,0,0,22.376,9.546h178.87c16.938,0,30.8-13.634,30.8-30.3a30.249,30.249,0,0,0-14.687-25.787,15.417,15.417,0,0,1,1.749,7.111v.117a15.878,15.878,0,0,0-1.749-7.228,16.187,16.187,0,0,0-8.04-7.53l.009-.008a36.669,36.669,0,0,0,13.437-28.33v-13.012a36.81,36.81,0,0,0-36.7-36.7h-63.6a36.349,36.349,0,0,0,.992-23.2c-.206-.712-.43-1.416-.677-2.11a36.84,36.84,0,0,0-34.524-24.466l-.061,0H2814.3a15.877,15.877,0,0,0-2.18,8.016v2.531a15.861,15.861,0,0,0,1.587,6.891,16.182,16.182,0,0,0,4.125,5.343,15.944,15.944,0,0,0,10.319,3.8H2852.5a16.516,16.516,0,0,1,6.187,6.292h0a15.89,15.89,0,0,1,1.944,7.628v2.532a15.855,15.855,0,0,1-1.519,6.749,16.122,16.122,0,0,1-10.926,8.86h-32.272a16.083,16.083,0,0,0-15.967,14.765c-.033.419-.064.838-.064,1.265v2.532a15.8,15.8,0,0,0,.243,2.671,16.1,16.1,0,0,0,12.2,12.938l2.846.76,33.824.5,33.033.593,37.405-1.028,2.373-.248m.01-.15a16.083,16.083,0,0,1,10.951,15.187v2.531a16.084,16.084,0,0,1-12.445,15.609l-2.336.116m-73.389-67.615c.393,0,.78-.023,1.165-.053-.384.03-.771.053-1.163.053Zm1.373-.063c.451-.041.9-.1,1.339-.18C2846.873,1096.05,2846.427,1096.111,2845.975,1096.152Zm59.94,68.475a15.6,15.6,0,0,0,3.233.352A15.59,15.59,0,0,1,2905.915,1164.627Z" transform="translate(-2509.835 -207.286)"/><path class="cls-21" d="M2742.008,1230.129l-.016-.161a20.789,20.789,0,0,1-18.709-20.652,20.059,20.059,0,0,1,.179-2.635H2610.486a37.651,37.651,0,0,1-33.258-55.4l1.051-1.962.769,2.09a14.413,14.413,0,0,0,13.455,9.439h63.185a14.326,14.326,0,0,0,9.183-3.355l.665-.558.117.106a14.3,14.3,0,0,0,4.422-10.316v-2.545a14.411,14.411,0,0,0-14.344-14.344h-3.354l.069-1.066a37.927,37.927,0,0,1,31.22-34.7,38.51,38.51,0,0,1,.5-4,37.879,37.879,0,0,1,17.232-25.426,37.464,37.464,0,0,1,19.883-5.715h7.588a38.166,38.166,0,0,1,24.325-21.338l3.212-.915-2.179,2.529a16.136,16.136,0,0,0-.836,20.136,16.5,16.5,0,0,0,6.016,5.071h28.533a19.933,19.933,0,0,1,8.22,1.775,20.192,20.192,0,0,1-8.22,38.615h-32.21A18.147,18.147,0,0,0,2739.943,1132c.157.272.319.537.489.8a18.447,18.447,0,0,0,8.7,7.136h71.284a19.957,19.957,0,0,1,7.132,1.331,20.259,20.259,0,0,1,13.062,18.863,19.912,19.912,0,0,1-1.772,8.215,20.275,20.275,0,0,1-3.84,5.7,20,20,0,0,1-14.582,6.281H2785.8v-.557l-.024-.017v.574h-1.036c-4.564.815-9.176,3.859-12.487,8.213h29.307a20.781,20.781,0,0,1,0,41.561H2788.72l-.916.032Z" transform="translate(-2509.835 -207.286)"/><path class="cls-21" d="M2835.025,1147.725a19.321,19.321,0,0,0-7.829-5.526,18.978,18.978,0,0,0-6.776-1.266h-71.471a19.344,19.344,0,0,1-9.358-7.593q-.269-.415-.515-.844a19.015,19.015,0,0,1-2.546-9.492,19.229,19.229,0,0,1,9.816-16.717,19.012,19.012,0,0,1,9.379-2.478h32.211a19.21,19.21,0,0,0,16.356-9.223,19,19,0,0,0,2.839-9.972,19.248,19.248,0,0,0-11.384-17.507,19,19,0,0,0-7.811-1.688h-28.762a17.459,17.459,0,0,1-6.6-5.484,17.136,17.136,0,0,1,.887-21.376,36.992,36.992,0,0,0-23.938,21.376h-8.25a36.4,36.4,0,0,0-19.353,5.564,36.88,36.88,0,0,0-16.778,24.753h0a36.655,36.655,0,0,0-.528,4.684h0a36.852,36.852,0,0,0-31.174,33.9h2.288a15.408,15.408,0,0,1,15.343,15.343v2.545a15.312,15.312,0,0,1-5.416,11.661c-.048-.043-.1-.083-.145-.126a15.254,15.254,0,0,1-9.826,3.589H2592.5a15.388,15.388,0,0,1-14.394-10.094,36.369,36.369,0,0,0-4.325,17.22h0a36.811,36.811,0,0,0,36.7,36.7h114.147a19.684,19.684,0,0,0,18.277,23.357c0,.03,0,.061.005.091H2787.8v-.033h13.753a19.78,19.78,0,1,0,0-39.56h-31.271c.218-.314.435-.628.67-.927,3.355-4.73,8.392-8.37,13.7-9.286h1.123l-.168.256c.066-.084.129-.17.191-.256h34.622a19.157,19.157,0,0,0,14.605-31.6Zm-148.458-54.117c-.236-.436-.45-.884-.652-1.339C2686.117,1092.724,2686.331,1093.172,2686.567,1093.608Z" transform="translate(-2509.835 -207.286)"/><path class="cls-22" d="M2756.521,1229.932l-.218-.7a6.812,6.812,0,0,1-.317-2.021c0-4.873,5.254-8.837,11.711-8.837h8.811a20.29,20.29,0,0,1-10.6-17.744,21.854,21.854,0,0,1,4.282-12.377c3.922-5.53,9.6-9.181,15.267-9.831l.078-.1h.921l1.477-.134-.09.134h32.581a18.019,18.019,0,0,0,13.135-5.662,18.276,18.276,0,0,0,3.463-5.139,17.926,17.926,0,0,0,1.6-7.394,18.166,18.166,0,0,0-4.35-11.754,18.361,18.361,0,0,0-7.424-5.24,17.944,17.944,0,0,0-6.42-1.2h-71.655l-.172-.066a20.466,20.466,0,0,1-9.843-7.986c-.187-.292-.369-.587-.541-.889a20.208,20.208,0,0,1,17.517-30.184h32.21a18.2,18.2,0,0,0,0-36.39h-28.989l-.2-.1a18.469,18.469,0,0,1-6.973-5.8,18.134,18.134,0,0,1,.937-22.616l.2-.227.288-.082a37.444,37.444,0,0,1,10.274-1.444h52.575l-.876,1.5a14.943,14.943,0,0,0-2.044,7.512v2.531a14.791,14.791,0,0,0,1.488,6.457,15.266,15.266,0,0,0,3.87,5.014,15,15,0,0,0,9.672,3.559h24.619l.23.132a17.489,17.489,0,0,1,6.568,6.683,16.977,16.977,0,0,1,2.067,8.107v2.532a16.8,16.8,0,0,1-1.613,7.174,17.213,17.213,0,0,1-11.606,9.41l-.111.025h-32.388a15.033,15.033,0,0,0-12.986,7.519,14.8,14.8,0,0,0-1.983,6.325c-.031.392-.061.786-.061,1.186v2.531a14.915,14.915,0,0,0,.228,2.5,15.194,15.194,0,0,0,11.442,12.131,14.982,14.982,0,0,0,3.36.4H2915.9c.354,0,.882-.019,1.484-.039.829-.028,1.793-.061,2.649-.061a13.564,13.564,0,0,1,1.878.1l.148.032a17.053,17.053,0,0,1,11.716,16.158v2.531a17.173,17.173,0,0,1-13.219,16.584l-.112.026h-29.855a15.078,15.078,0,0,0-15.031,15.031v2.531a15.114,15.114,0,0,0,15.031,15.031h23.58l.031.243a16.245,16.245,0,0,1-2.382,32.315h-96.924l-.747.066Z" transform="translate(-2509.835 -207.286)"/><path class="cls-22" d="M2921.821,1130.387l-.062-.015a57.8,57.8,0,0,0-5.861.015h-99.982a15.887,15.887,0,0,1-3.586-.422,16.1,16.1,0,0,1-12.2-12.938,15.8,15.8,0,0,1-.243-2.671v-2.532c0-.427.031-.846.064-1.265a15.867,15.867,0,0,1,2.116-6.75,16.04,16.04,0,0,1,13.851-8.015h32.272a16.122,16.122,0,0,0,10.926-8.86,15.855,15.855,0,0,0,1.519-6.749v-2.532a15.891,15.891,0,0,0-1.944-7.629h0a16.5,16.5,0,0,0-6.186-6.292H2828.15a15.944,15.944,0,0,1-10.319-3.8,16.182,16.182,0,0,1-4.125-5.343,15.861,15.861,0,0,1-1.587-6.891v-2.531a15.877,15.877,0,0,1,2.18-8.016h-50.835a36.387,36.387,0,0,0-10,1.4,17.136,17.136,0,0,0-.887,21.376,17.459,17.459,0,0,0,6.6,5.484h28.762a19,19,0,0,1,7.811,1.688,19.248,19.248,0,0,1,11.384,17.507,19,19,0,0,1-2.839,9.972,19.21,19.21,0,0,1-16.356,9.223h-32.211a19.012,19.012,0,0,0-9.379,2.478A19.229,19.229,0,0,0,2736.53,1123a19.015,19.015,0,0,0,2.546,9.492q.246.429.515.844a19.344,19.344,0,0,0,9.358,7.593h71.471a18.978,18.978,0,0,1,6.776,1.266h0a19.314,19.314,0,0,1,7.829,5.526,19,19,0,0,1,2.9,20.207,19.319,19.319,0,0,1-17.51,11.391h-34.414c-.125.153-.232.32-.355.475.093-.14.185-.287.277-.423-5.748.522-11.313,4.358-14.927,9.453h0a20.814,20.814,0,0,0-4.1,11.8,19,19,0,0,0,.758,5.273,19.332,19.332,0,0,0,12.721,13.031c.056.149.124.293.184.44H2767.7c-5.891,0-10.711,3.527-10.711,7.837h0a5.769,5.769,0,0,0,.272,1.723h56.886c.006-.021.009-.044.015-.066h97.657a15.292,15.292,0,0,0,15.247-15.247h0a15.3,15.3,0,0,0-13.764-15.172c-.005-.046-.008-.093-.014-.139h-22.7a16.044,16.044,0,0,1-13.594-7.594,15.881,15.881,0,0,1-2.437-8.437v-2.531a15.867,15.867,0,0,1,1.346-6.393,16.159,16.159,0,0,1,3.9-5.42,15.949,15.949,0,0,1,10.783-4.218h29.741a16.084,16.084,0,0,0,12.445-15.609v-2.531A16.083,16.083,0,0,0,2921.821,1130.387Zm-149.553,56.983a19.409,19.409,0,0,1,2.936-2.507A19.466,19.466,0,0,0,2772.268,1187.37Z" transform="translate(-2509.835 -207.286)"/><path class="cls-20" d="M2592.547,1163.072a16.42,16.42,0,0,1-15.332-10.75l-.155-.421.211-.4a37.967,37.967,0,0,1,8.283-10.481l1.734-1.539-.07,2.318-.01.162a8.3,8.3,0,0,0,8.276,8.374h51.186a8.346,8.346,0,0,0,8.005-6.188,37.323,37.323,0,0,1-1.938-7.7,8.269,8.269,0,0,0-6.067-2.671h-40.587l-.122-1.992a37.687,37.687,0,0,1,4.569-.289h41.828c0-.089,0-.177,0-.266,0-.736.029-1.517.09-2.456l.062-.934h3.223a16.409,16.409,0,0,1,16.344,16.344v2.545a16.4,16.4,0,0,1-16.344,16.343Z" transform="translate(-2509.835 -207.286)"/><path class="cls-20" d="M2665.632,1132.5a15.255,15.255,0,0,0-9.9-3.656h-2.288c-.052.791-.087,1.586-.087,2.39h0c0,.425.018.845.032,1.266H2610.53a36.689,36.689,0,0,0-4.447.281h40.587a9.261,9.261,0,0,1,7.016,3.234,36.283,36.283,0,0,0,2.033,8.079,9.313,9.313,0,0,1-9.049,7.249h-51.186a9.308,9.308,0,0,1-9.281-9.281c0-.1.012-.19.015-.286a37.093,37.093,0,0,0-8.065,10.205,15.389,15.389,0,0,0,14.394,10.095h63.185a15.4,15.4,0,0,0,15.343-15.344v-2.545A15.317,15.317,0,0,0,2665.632,1132.5Z" transform="translate(-2509.835 -207.286)"/><path class="cls-22" d="M2595.484,1152.339a10.292,10.292,0,0,1-10.281-10.28c0-.08.005-.157.01-.235l.014-.43.327-.37a37.457,37.457,0,0,1,20.408-9.239l.06-.008h40.648a10.281,10.281,0,1,1,0,20.562Z" transform="translate(-2509.835 -207.286)"/><path class="cls-22" d="M2586.2,1142.058a9.308,9.308,0,0,0,9.281,9.281h51.186a9.281,9.281,0,0,0,0-18.562h-40.587a36.6,36.6,0,0,0-19.865,8.995C2586.215,1141.868,2586.2,1141.962,2586.2,1142.058Z" transform="translate(-2509.835 -207.286)"/><path class="cls-23" d="M2690.368,1229.8c-.3,0-.605-.013-.91-.041-5.568-.507-54.634-5.752-62.1-33.633a9.933,9.933,0,1,1,19.19-5.14c3.053,11.395,31.987,17.811,44.718,18.988a9.934,9.934,0,0,1-.9,19.826Z" transform="translate(-2509.835 -207.286)"/><path class="cls-23" d="M2690.368,1228.8c-.271,0-.543-.012-.819-.037-5.5-.5-53.934-5.669-61.225-32.9a8.933,8.933,0,0,1,17.258-4.622c3.218,12.014,32.106,18.478,45.592,19.725a8.934,8.934,0,0,1-.806,17.83Z" transform="translate(-2509.835 -207.286)"/><path class="cls-24" d="M2715.5,1225.52q-.572,0-1.15-.046a13.908,13.908,0,0,1-12.723-14.994l7.461-91.1a13.97,13.97,0,0,1,13.83-12.772q.579,0,1.165.049a13.906,13.906,0,0,1,12.722,14.992l-7.461,91.1A13.976,13.976,0,0,1,2715.5,1225.52Z" transform="translate(-2509.835 -207.286)"/><path class="cls-24" d="M2715.5,1224.519c-.354,0-.71-.013-1.068-.042a12.905,12.905,0,0,1-11.808-13.915l7.461-91.1a12.9,12.9,0,0,1,25.723,2.106l-7.461,91.1A12.906,12.906,0,0,1,2715.5,1224.519Z" transform="translate(-2509.835 -207.286)"/><path class="cls-23" d="M2756.133,1230.5a63.209,63.209,0,0,1-17.107-2.279,9.934,9.934,0,0,1,5.514-19.087,49.237,49.237,0,0,0,12.178,1.531c8.2,0,19.3-2.221,25.648-12.8a9.934,9.934,0,0,1,17.037,10.223C2787.7,1227.59,2767.271,1230.5,2756.133,1230.5Z" transform="translate(-2509.835 -207.286)"/><path class="cls-23" d="M2756.133,1229.5a62.016,62.016,0,0,1-16.828-2.24,8.934,8.934,0,0,1,4.959-17.165c1.153.326,27.445,7.48,38.96-11.717a8.934,8.934,0,0,1,15.322,9.193C2788.269,1224.7,2770.659,1229.5,2756.133,1229.5Z" transform="translate(-2509.835 -207.286)"/><path class="cls-23" d="M2735.523,1236.081a9.934,9.934,0,0,1-4.45-18.819c9.028-4.515,15.39-20.2,16.906-25.342a9.934,9.934,0,1,1,19.055,5.622c-.848,2.876-8.817,28.359-27.075,37.487A9.816,9.816,0,0,1,2735.523,1236.081Z" transform="translate(-2509.835 -207.286)"/><path class="cls-23" d="M2735.523,1235.081a8.934,8.934,0,0,1-4-16.925c9.345-4.674,15.869-20.7,17.418-25.953a8.933,8.933,0,1,1,17.136,5.056c-.835,2.832-8.683,27.937-26.563,36.876A8.891,8.891,0,0,1,2735.523,1235.081Z" transform="translate(-2509.835 -207.286)"/><path class="cls-23" d="M2711.965,1158.905q-.363,0-.732-.028a36.048,36.048,0,0,1-23.5-12.958c-7.937-9.666-10.967-23.182-9.007-40.173a8.94,8.94,0,0,1,8.886-7.916,9.2,9.2,0,0,1,1.017.057,8.94,8.94,0,0,1,7.86,9.906c-1.367,11.857.284,20.8,4.909,26.588a18.225,18.225,0,0,0,11.4,6.682,8.939,8.939,0,0,1-.834,17.842Z" transform="translate(-2509.835 -207.286)"/><path class="cls-23" d="M2711.965,1157.905q-.324,0-.652-.025a34.943,34.943,0,0,1-22.806-12.6c-7.758-9.447-10.715-22.712-8.787-39.424a7.941,7.941,0,1,1,15.777,1.819c-1.4,12.132.324,21.326,5.121,27.326a19.364,19.364,0,0,0,12.077,7.053,7.9,7.9,0,0,1,7.224,8.552A7.981,7.981,0,0,1,2711.965,1157.905Z" transform="translate(-2509.835 -207.286)"/><path class="cls-25" d="M2692.9,1223.592c-4.581-1.725-44.583-19.113-38.549-97.334.517-6.72,6.538-11.985,13.706-11.985q.514,0,1.038.038a14.149,14.149,0,0,1,9.732,4.751,12.313,12.313,0,0,1,3.038,9.056c-4.54,58.871,21.467,71.556,21.73,71.677l-.413.923.586.255-9.977,22.955Z" transform="translate(-2509.835 -207.286)"/><path class="cls-25" d="M2693.256,1222.656c-4.509-1.7-43.882-18.838-37.9-96.321.505-6.563,6.626-11.522,13.676-11.027,7.047.471,12.351,6.172,11.844,12.733-4.628,60.007,22.045,72.545,22.315,72.665a3.507,3.507,0,0,0-.332-.132Z" transform="translate(-2509.835 -207.286)"/><path class="cls-25" d="M2661.7,1174.427c-.276,0-.555-.011-.836-.035-9.385-.782-27.791-9.244-30.269-35.674a9.946,9.946,0,0,1,8.963-10.818c.318-.03.636-.045.952-.045a9.879,9.879,0,0,1,9.866,9.009c1.544,16.468,11.719,17.687,12.15,17.731a9.932,9.932,0,0,1,9.064,10.723A9.987,9.987,0,0,1,2661.7,1174.427Z" transform="translate(-2509.835 -207.286)"/><path class="cls-25" d="M2661.7,1173.426c-.249,0-.5-.009-.752-.031-9.1-.758-26.942-9-29.359-34.771a8.934,8.934,0,0,1,17.79-1.667c1.639,17.482,12.939,18.623,13.053,18.633a8.933,8.933,0,0,1-.732,17.836Z" transform="translate(-2509.835 -207.286)"/><path class="cls-25" d="M2745.332,1192.517a11.921,11.921,0,0,1-3.838-23.206c.841-.3,20.909-7.628,25.972-30.555a11.919,11.919,0,1,1,23.277,5.139c-8.036,36.4-40.271,47.549-41.639,48.005A11.89,11.89,0,0,1,2745.332,1192.517Z" transform="translate(-2509.835 -207.286)"/><path class="cls-25" d="M2745.332,1191.516a10.921,10.921,0,0,1-3.516-21.259c1.018-.359,21.451-7.845,26.626-31.286a10.919,10.919,0,1,1,21.324,4.708c-7.918,35.87-39.633,46.824-40.979,47.273A10.909,10.909,0,0,1,2745.332,1191.516Z" transform="translate(-2509.835 -207.286)"/><path class="cls-26" d="M2711.83,1237.286l-.929-28.264.221-.007-.15-.96c.127-.021.257-.046.392-.078l1.431-2.214.056,1.681c7.006-3.3,19.846-19.787,17.99-69.47a14.4,14.4,0,0,1,3.885-10.41,15.11,15.11,0,0,1,21.206-.816,14.477,14.477,0,0,1,4.68,10.15c.009.23.014.454.018.678l.013.556-1.875.515a4.868,4.868,0,0,0-3.977-2.546l-1.638-.1a3.354,3.354,0,0,0-2.939,1.275,6.378,6.378,0,0,0-1.271,3.639l-2-.121a8.371,8.371,0,0,1,1.721-4.786,5.327,5.327,0,0,1,4.606-2l1.638.1a6.811,6.811,0,0,1,3.536,1.247,12.5,12.5,0,0,0-3.875-7.134,13.108,13.108,0,0,0-18.383.709,12.423,12.423,0,0,0-3.351,8.973c1.939,51.9-12.459,68.628-19.919,71.658l.843,25.636c3.618-.324,13.842-2.181,23.805-12.659a64.415,64.415,0,0,0,12.871-21l-1.265-.077.121-2,1.637.1a5.014,5.014,0,0,0,.854-.038l1.625-.188-.573,1.532c-3.486,9.314-8.137,17.067-13.82,23.044-11.684,12.286-23.867,13.27-26.19,13.342Z" transform="translate(-2509.835 -207.286)"/><path class="cls-26" d="M2747.945,1140.854c.2-3.234,2.035-6.047,5.269-5.851l1.637.1a5.887,5.887,0,0,1,4.793,3.062c-.014-.415-.015-.812-.031-1.229a13.9,13.9,0,0,0-27.774,1c2.067,55.3-14.248,70.075-20.71,71.105a3.843,3.843,0,0,1,.772-.053l.895,27.267c2.256-.071,14.089-1.036,25.5-13.032,5.65-5.942,10.177-13.54,13.608-22.7a5.856,5.856,0,0,1-1.029.042l-1.638-.1" transform="translate(-2509.835 -207.286)"/><path class="cls-25" d="M2757.573,1171.021l1.208-19.876,2,.075c-.1,7.008-.511,13.727-1.214,19.972Z" transform="translate(-2509.835 -207.286)"/><path class="cls-25" d="M2759.779,1151.205l-1.208,19.876Q2759.62,1161.757,2759.779,1151.205Z" transform="translate(-2509.835 -207.286)"/><path class="cls-25" d="M2758.779,1151.19c.072-4.828.043-8.923-.089-12.89l1.875-.517a6.814,6.814,0,0,1,.806,3.717l-.594,9.766Z" transform="translate(-2509.835 -207.286)"/><path class="cls-25" d="M2759.779,1151.205l.594-9.766a5.788,5.788,0,0,0-.683-3.173C2759.838,1142.719,2759.841,1147.037,2759.779,1151.205Z" transform="translate(-2509.835 -207.286)"/><path class="cls-25" d="M2751.145,1201.667c-.112,0-.223,0-.335-.01l-1.636-.1c-.142-.007-3.824-.21-5.813-2.987-1.333-1.861-1.561-4.358-.678-7.423l.02-.07.031-.068c.062-.136,6.155-13.991,4.476-50.01v-.107c.257-4.241,2.424-6.875,5.654-6.875.122,0,.245,0,.37.011l1.667.1a7,7,0,0,1,5.652,3.594l.115.21.008.239c.136,4.083.17,8.474.1,13.049l-1.21,19.922a125.539,125.539,0,0,1-6.731,29.827l-.214.572-.607.07A7.437,7.437,0,0,1,2751.145,1201.667Z" transform="translate(-2509.835 -207.286)"/><path class="cls-25" d="M2748.209,1140.953c.2-3.234,1.732-6.123,4.966-5.926l1.669.1a5.973,5.973,0,0,1,4.834,3.078c.148,4.453.163,8.833.1,13l-1.208,19.876a123.949,123.949,0,0,1-6.67,29.537,5.762,5.762,0,0,1-1.029.041l-1.638-.1s-8.113-.382-5.591-9.134C2743.643,1191.426,2749.923,1177.744,2748.209,1140.953Z" transform="translate(-2509.835 -207.286)"/><path class="cls-26" d="M2777.62,1177.076a35.32,35.32,0,0,1-13.017-2.522,7.949,7.949,0,0,1,6.184-14.645,20.368,20.368,0,0,0,6.859,1.265,12.363,12.363,0,0,0,5.028-.97c2.914-1.289,5.084-3.985,6.633-8.244a7.948,7.948,0,1,1,14.938,5.434c-3.087,8.49-8.236,14.35-15.3,17.419A28.241,28.241,0,0,1,2777.62,1177.076Z" transform="translate(-2509.835 -207.286)"/><path class="cls-26" d="M2777.62,1176.077a34.42,34.42,0,0,1-12.626-2.443,6.949,6.949,0,0,1,5.407-12.8c.194.08,7.037,2.781,12.677.287,3.177-1.4,5.521-4.29,7.168-8.817a6.948,6.948,0,1,1,13.059,4.75c-2.989,8.222-7.955,13.889-14.761,16.843A27.286,27.286,0,0,1,2777.62,1176.077Z" transform="translate(-2509.835 -207.286)"/><path class="cls-27" d="M2710,1237.508a14.894,14.894,0,0,1-11.247-5.122c-1.165-1.339-28.433-33.271-18.984-74.371a14.817,14.817,0,0,1,14.505-11.562,14.906,14.906,0,0,1,14.531,18.236c-5.988,26.041,12.252,47.938,12.436,48.156A14.895,14.895,0,0,1,2710,1237.508Z" transform="translate(-2509.835 -207.286)"/><path class="cls-27" d="M2710,1236.508a13.858,13.858,0,0,1-10.492-4.779c-1.152-1.324-28.1-32.9-18.765-73.491a13.9,13.9,0,1,1,27.087,6.228c-6.1,26.527,12.462,48.809,12.651,49.028A13.9,13.9,0,0,1,2710,1236.508Z" transform="translate(-2509.835 -207.286)"/><path class="cls-25" d="M2710,1237.508a14.894,14.894,0,0,1-11.247-5.122,82.684,82.684,0,0,1-8.392-12.2l-1.034-1.794,2.048.305a13.429,13.429,0,0,0,2.028.169,13.84,13.84,0,0,0,13.824-13.824v-16.677l1.97-.239a66.871,66.871,0,0,0,12.043,24.722,14.895,14.895,0,0,1-11.24,24.664Z" transform="translate(-2509.835 -207.286)"/><path class="cls-25" d="M2720.479,1213.494a68.385,68.385,0,0,1-12.254-25.133v16.677a14.868,14.868,0,0,1-14.824,14.824h0a14.741,14.741,0,0,1-2.176-.179,82.377,82.377,0,0,0,8.281,12.046,13.9,13.9,0,1,0,20.973-18.235Z" transform="translate(-2509.835 -207.286)"/><path class="cls-26" d="M2677.879,1179.147a78.179,78.179,0,0,1,1.888-21.132,14.817,14.817,0,0,1,14.505-11.562,14.98,14.98,0,0,1,3.35.381,14.9,14.9,0,0,1,11.181,17.855,47.794,47.794,0,0,0-1.191,10.706l-1.891.453a13.8,13.8,0,0,0-25.864,3.455Z" transform="translate(-2509.835 -207.286)"/><path class="cls-26" d="M2693.4,1167.242h0a14.853,14.853,0,0,1,13.211,8.152,48.543,48.543,0,0,1,1.216-10.928,13.9,13.9,0,1,0-27.087-6.228,76.873,76.873,0,0,0-1.863,20.863A14.881,14.881,0,0,1,2693.4,1167.242Z" transform="translate(-2509.835 -207.286)"/><path class="cls-25" d="M2693.4,1220.862a15.464,15.464,0,0,1-2.323-.19l-.477-.071-.242-.419c-5.249-9.106-11.674-23.617-12.48-41.035l-.006-.124.025-.123a15.805,15.805,0,0,1,29.606-3.959l.108.213v.241a53.538,53.538,0,0,0,1.583,12.728l.03.117v16.8A15.842,15.842,0,0,1,2693.4,1220.862Z" transform="translate(-2509.835 -207.286)"/><path class="cls-25" d="M2693.4,1219.862a14.868,14.868,0,0,0,14.824-14.824v-16.677a54.4,54.4,0,0,1-1.613-12.967,14.853,14.853,0,0,0-13.211-8.152h0a14.881,14.881,0,0,0-14.523,11.859c.785,16.987,6.946,31.212,12.347,40.582a14.741,14.741,0,0,0,2.176.179Z" transform="translate(-2509.835 -207.286)"/><ellipse class="cls-24" cx="235.499" cy="930.898" rx="8.461" ry="8.068"/><ellipse class="cls-24" cx="235.499" cy="930.898" rx="7.461" ry="7.068"/><path class="cls-23" d="M2779.955,1145.466a6.152,6.152,0,1,1,6.433-6.146A6.3,6.3,0,0,1,2779.955,1145.466Z" transform="translate(-2509.835 -207.286)"/><ellipse class="cls-23" cx="270.12" cy="932.034" rx="5.432" ry="5.146"/><path class="cls-24" d="M2694.9,1167.261a6.8,6.8,0,1,1,7.114-6.793A6.967,6.967,0,0,1,2694.9,1167.261Z" transform="translate(-2509.835 -207.286)"/><ellipse class="cls-24" cx="185.066" cy="953.183" rx="6.114" ry="5.792"/><path class="cls-23" d="M2668.4,1135.257a6.8,6.8,0,1,1,7.114-6.792A6.967,6.967,0,0,1,2668.4,1135.257Z" transform="translate(-2509.835 -207.286)"/><ellipse class="cls-23" cx="158.56" cy="921.179" rx="6.114" ry="5.792"/><path class="cls-23" d="M2723.1,1126.007a7.474,7.474,0,1,1,7.825-7.466A7.661,7.661,0,0,1,2723.1,1126.007Z" transform="translate(-2509.835 -207.286)"/><ellipse class="cls-23" cx="213.265" cy="911.255" rx="6.825" ry="6.466"/><path class="cls-26" d="M2723.321,1131.993a13.6,13.6,0,1,1,0-27.187,4.5,4.5,0,0,1,0,9,4.619,4.619,0,1,0,5.1,4.593,4.5,4.5,0,0,1,9,0A13.868,13.868,0,0,1,2723.321,1131.993Z" transform="translate(-2509.835 -207.286)"/><path class="cls-26" d="M2723.322,1130.994a12.6,12.6,0,1,1,0-25.188,3.5,3.5,0,0,1,0,7,5.615,5.615,0,1,0,6.1,5.594,3.5,3.5,0,0,1,7,0A12.868,12.868,0,0,1,2723.322,1130.994Z" transform="translate(-2509.835 -207.286)"/><rect class="cls-26" x="2662.263" y="1147" width="23.205" height="8.807" rx="3.952" transform="translate(1315.433 -1729.748) rotate(90)"/><rect class="cls-26" x="160.627" y="933.516" width="6.807" height="21.205" rx="2.952"/><path class="cls-26" d="M2639.309,1143.5a9.256,9.256,0,0,1-9.246-9.246v-5.106a9.246,9.246,0,1,1,18.492,0v5.106A9.257,9.257,0,0,1,2639.309,1143.5Z" transform="translate(-2509.835 -207.286)"/><rect class="cls-26" x="121.227" y="913.619" width="16.493" height="21.598" rx="8.246"/><path class="cls-26" d="M2791.009,1211.386a9.236,9.236,0,0,1-7.646-14.411l2.856-4.232a9.247,9.247,0,0,1,15.33,10.345l-2.856,4.231A9.249,9.249,0,0,1,2791.009,1211.386Z" transform="translate(-2509.835 -207.286)"/><rect class="cls-26" x="2784.21" y="1189.232" width="16.493" height="21.598" rx="8.246" transform="matrix(0.829, 0.559, -0.559, 0.829, -1360.856, -1563.985)"/><path class="cls-25" d="M2719.907,1235.522a15.4,15.4,0,1,1,15.039-15.4A15.238,15.238,0,0,1,2719.907,1235.522Z" transform="translate(-2509.835 -207.286)"/><ellipse class="cls-25" cx="210.072" cy="1012.838" rx="14.039" ry="14.398"/><path class="cls-25" d="M2711.362,1238.1a8.669,8.669,0,0,1-8.365-6.408l-.59-2.2a8.272,8.272,0,0,1,5.833-10.109l11.672-3.131a8.183,8.183,0,0,1,2.126-.281,8.27,8.27,0,0,1,7.983,6.115l.693,2.581a8.264,8.264,0,0,1-5.834,10.11l-11.289,3.028A8.631,8.631,0,0,1,2711.362,1238.1Z" transform="translate(-2509.835 -207.286)"/><path class="cls-25" d="M2715.62,1213.785h2.277a7.254,7.254,0,0,1,7.254,7.254v12.084a7.254,7.254,0,0,1-7.254,7.254h-2.673a7.254,7.254,0,0,1-7.254-7.254v-11.688a7.649,7.649,0,0,1,7.649-7.649Z" transform="translate(-274.645 3961.514) rotate(-105.016)"/><path class="cls-28" d="M3791.442,591.186l10.759,5.09a1.376,1.376,0,0,0,1.855-1.38l.409-9.855a1.374,1.374,0,0,0-1.726-1.529l-11.14,4.121" transform="translate(-2509.835 -207.286)"/><rect class="cls-29" x="3801.684" y="585.438" width="2.601" height="9.332" rx="0.955" transform="translate(-2477.461 -387.512) rotate(2.726)"/><rect class="cls-30" x="1267.764" y="387.992" width="20.054" height="13.801" rx="6.9"/><rect class="cls-30" x="3776.052" y="568.785" width="20.773" height="14.295" rx="7.148" transform="translate(-2545.347 120.63) rotate(-4.936)"/><rect class="cls-31" x="1242.417" y="363.234" width="45.309" height="37.819" rx="18.91"/><path class="cls-32" d="M3772.726,593.209a5.036,5.036,0,0,1-.458.878,4.914,4.914,0,1,1,.458-.878Z" transform="translate(-2509.835 -207.286)"/><circle class="cls-32" cx="1254.413" cy="394.227" r="1.126"/><polyline class="cls-32" points="1255.458 394.649 1262.117 387.23 1253.719 383.87 1253.369 393.806"/><path class="cls-33" d="M3755.545,599.614a1.566,1.566,0,0,1-.349.154,2.232,2.232,0,0,1-2.442-1.162,1.918,1.918,0,1,1,2.791,1.008Z" transform="translate(-2509.835 -207.286)"/><ellipse class="cls-33" cx="3750.779" cy="599.785" rx="0.433" ry="0.544" transform="translate(-2287.296 1799.483) rotate(-30.826)"/><polyline class="cls-33" points="1241.223 392.966 1245.158 392.529 1242.908 388.782 1240.665 392.032"/><circle class="cls-34" cx="1253.131" cy="385.461" r="2.786"/><path class="cls-35" d="M3777.311,604.6a.683.683,0,0,1-.208-.032.7.7,0,0,1-.462-.877,3.279,3.279,0,0,0-.254-2.552,7.485,7.485,0,0,1-1.441-3.866,10.784,10.784,0,0,1,.958-4.566,4.551,4.551,0,0,0-.068-3.369,29.078,29.078,0,0,1-1.809-5.918c-.348-2.532,1.593-6.775,1.676-6.954a.7.7,0,1,1,1.273.587c-.516,1.12-1.8,4.411-1.56,6.176a28.157,28.157,0,0,0,1.708,5.554,5.861,5.861,0,0,1,.021,4.577,9.48,9.48,0,0,0-.8,3.869h0a6.128,6.128,0,0,0,1.147,3.048,4.64,4.64,0,0,1,.485,3.829A.7.7,0,0,1,3777.311,604.6Z" transform="translate(-2509.835 -207.286)"/><path class="cls-35" d="M3782.12,601.181a.7.7,0,0,1-.608-.35c-.357-.619-3.429-6.11-1.205-8.546a2.672,2.672,0,0,0,.107-3.482c-2.871-3.274-.3-9.422-.188-9.682a.7.7,0,0,1,1.29.55c-.024.055-2.337,5.6-.025,8.232a4.063,4.063,0,0,1-.149,5.328c-1.3,1.426.611,5.561,1.384,6.9a.7.7,0,0,1-.256.958A.686.686,0,0,1,3782.12,601.181Z" transform="translate(-2509.835 -207.286)"/><path class="cls-35" d="M3786.326,596.834a.7.7,0,0,1-.439-.154,4.406,4.406,0,0,1-1.233-5.655c.157-.361.567-1.685.01-2.267-1.224-1.279-.4-4.854-.219-5.557a.7.7,0,1,1,1.359.344c-.422,1.672-.574,3.776-.127,4.243,1.33,1.391.27,3.773.225,3.873a3.008,3.008,0,0,0,.864,3.926.7.7,0,0,1-.44,1.247Z" transform="translate(-2509.835 -207.286)"/><path class="cls-36" d="M3789.851,609.052a.7.7,0,0,1-.008-1.4c2.973-.037,5.607-1.433,6.555-3.475.9-1.934.282-4.281-1.782-6.786a.7.7,0,0,1,1.082-.891c3.072,3.728,2.768,6.553,1.972,8.267-1.189,2.56-4.254,4.244-7.81,4.288Z" transform="translate(-2509.835 -207.286)"/><path class="cls-37" d="M3794.56,581.423a1.051,1.051,0,0,1-.875-1.634c1.473-2.212,1.734-4.922.651-6.746s-3.444-2.677-6.643-2.391a1.052,1.052,0,0,1-.187-2.1c5.459-.491,7.756,1.928,8.638,3.412,1.511,2.543,1.234,6.07-.708,8.986A1.048,1.048,0,0,1,3794.56,581.423Z" transform="translate(-2509.835 -207.286)"/><rect class="cls-38" x="1263.442" y="403.311" width="9.952" height="1.872" rx="0.688"/><rect class="cls-38" x="1262.055" y="402.063" width="9.952" height="1.872" rx="0.688"/><rect class="cls-38" x="1260.754" y="401.109" width="9.952" height="1.872" rx="0.688"/><path class="cls-35" d="M3774.652,608.619c-1.475,0-3.179-.043-5.123-.155-10.136-.581-15.087-9.647-15.292-10.033a1.052,1.052,0,0,1,1.855-.991h0c.045.084,4.621,8.411,13.558,8.924,8.232.47,12-.316,12.039-.324a19.165,19.165,0,0,0,13.6-11.911c3.317-8.42-4.958-16.961-5.041-17.046a1.051,1.051,0,1,1,1.5-1.476c.383.388,9.313,9.614,5.5,19.294a21.265,21.265,0,0,1-15.154,13.2A39.327,39.327,0,0,1,3774.652,608.619Z" transform="translate(-2509.835 -207.286)"/><rect class="cls-38" x="1259.454" y="400.017" width="9.952" height="1.872" rx="0.688"/><rect class="cls-38" x="1258.344" y="398.977" width="9.952" height="1.872" rx="0.688"/><rect class="cls-39" x="3775.808" y="608.551" width="8.218" height="1.872" rx="0.688" transform="translate(-1162.555 -2554.405) rotate(41.393)"/><rect class="cls-38" x="3767.59" y="608.482" width="8.218" height="1.872" rx="0.688" transform="translate(-1164.654 -2548.989) rotate(41.393)"/><path class="cls-40" d="M3753.314,592.007a1.052,1.052,0,0,1-1.046-.952,17.051,17.051,0,0,1,.47-5.947,1.052,1.052,0,0,1,1.987.69,14.759,14.759,0,0,0-.363,5.056,1.052,1.052,0,0,1-.946,1.148C3753.382,592.005,3753.347,592.007,3753.314,592.007Z" transform="translate(-2509.835 -207.286)"/><path class="cls-40" d="M3756.505,579.939a1.052,1.052,0,0,1-.817-1.714c.257-.316,6.366-7.744,13.185-7.6a1.052,1.052,0,0,1-.023,2.1h-.023l-.158,0c-5.728,0-11.291,6.757-11.347,6.826A1.05,1.05,0,0,1,3756.505,579.939Z" transform="translate(-2509.835 -207.286)"/><path class="cls-28" d="M3765.494,503.519l27.083,12.811c2.155,1.019,4.556-.768,4.668-3.474l1.031-24.805c.112-2.7-2.119-4.671-4.347-3.847l-28.038,10.372" transform="translate(-2509.835 -207.286)"/><rect class="cls-29" x="3791.274" y="489.051" width="6.546" height="23.488" rx="2.404" transform="translate(-2481.719 -387.212) rotate(2.726)"/><rect class="cls-30" x="1220.817" y="306.532" width="50.478" height="34.738" rx="17.369"/><rect class="cls-30" x="3726.758" y="447.134" width="52.287" height="35.983" rx="17.991" transform="translate(-2535.937 117.333) rotate(-4.936)"/><rect class="cls-31" x="1157.016" y="244.214" width="114.046" height="95.194" rx="47.597"/><path class="cls-32" d="M3718.387,508.611a12.784,12.784,0,0,1-1.155,2.21,12.361,12.361,0,1,1,1.155-2.21Z" transform="translate(-2509.835 -207.286)"/><circle class="cls-32" cx="1187.212" cy="322.227" r="2.835"/><polyline class="cls-32" points="1189.841 323.288 1206.602 304.614 1185.466 296.157 1184.584 321.165"/><path class="cls-33" d="M3675.14,524.732a3.855,3.855,0,0,1-.879.388c-2.128.643-4.715-.527-6.146-2.924-1.635-2.741-1.141-6.048,1.1-7.388s5.39-.2,7.025,2.537S3677.385,523.393,3675.14,524.732Z" transform="translate(-2509.835 -207.286)"/><ellipse class="cls-33" cx="3663.144" cy="525.162" rx="1.09" ry="1.37" transform="translate(-2261.438 1744.034) rotate(-30.826)"/><polyline class="cls-33" points="1154.011 319.052 1163.915 317.952 1158.254 308.52 1152.607 316.7"/><circle class="cls-34" cx="1183.986" cy="300.161" r="7.012"/><path class="cls-35" d="M3729.927,537.287a1.789,1.789,0,0,1-.523-.079A1.764,1.764,0,0,1,3728.24,535c.01-.035,1.2-4.061-.639-6.424a18.849,18.849,0,0,1-3.628-9.73c-.007-.319-.1-6.726,2.413-11.493,1.879-3.572-.151-8.432-.172-8.481-.159-.372-3.717-8.8-4.554-14.9-.875-6.372,4.011-17.052,4.219-17.5a1.765,1.765,0,0,1,3.206,1.479c-1.3,2.818-4.537,11.1-3.928,15.546.773,5.636,4.263,13.9,4.3,13.98.106.242,2.746,6.4.055,11.521-2.083,3.954-2.009,9.678-2.009,9.737h0a15.453,15.453,0,0,0,2.888,7.673c2.975,3.825,1.3,9.4,1.222,9.637A1.764,1.764,0,0,1,3729.927,537.287Z" transform="translate(-2509.835 -207.286)"/><path class="cls-35" d="M3742.031,528.676a1.767,1.767,0,0,1-1.53-.881c-.9-1.556-8.632-15.378-3.033-21.509,3.828-4.194.418-8.582.27-8.767-7.227-8.239-.754-23.713-.475-24.368a1.765,1.765,0,0,1,3.248,1.384c-.06.139-5.882,14.087-.064,20.721,1.948,2.444,4.3,8.3-.373,13.41-3.279,3.59,1.537,14,3.483,17.361a1.764,1.764,0,0,1-.644,2.411A1.746,1.746,0,0,1,3742.031,528.676Z" transform="translate(-2509.835 -207.286)"/><path class="cls-35" d="M3752.618,517.736a1.759,1.759,0,0,1-1.105-.39,11.09,11.09,0,0,1-3.105-14.233c.4-.907,1.427-4.241.026-5.706-3.08-3.219-1-12.217-.551-13.987a1.765,1.765,0,1,1,3.422.865c-1.063,4.209-1.445,9.506-.32,10.682,3.347,3.5.679,9.5.565,9.748a7.569,7.569,0,0,0,2.175,9.88,1.765,1.765,0,0,1-1.107,3.141Z" transform="translate(-2509.835 -207.286)"/><path class="cls-36" d="M3761.492,548.487a1.765,1.765,0,0,1-.021-3.53c7.482-.093,14.112-3.607,16.5-8.747,2.26-4.868.709-10.775-4.486-17.08a1.765,1.765,0,0,1,2.725-2.244c7.73,9.384,6.965,16.5,4.962,20.81-2.991,6.444-10.708,10.681-19.657,10.791Z" transform="translate(-2509.835 -207.286)"/><path class="cls-37" d="M3773.343,478.945a2.646,2.646,0,0,1-2.2-4.114c3.707-5.567,4.364-12.389,1.637-16.979s-8.668-6.738-16.719-6.019a2.648,2.648,0,1,1-.473-5.275c13.742-1.237,19.523,4.852,21.743,8.587,3.805,6.4,3.106,15.28-1.78,22.62A2.645,2.645,0,0,1,3773.343,478.945Z" transform="translate(-2509.835 -207.286)"/><rect class="cls-38" x="1209.937" y="345.091" width="25.049" height="4.713" rx="1.731"/><rect class="cls-38" x="1207.164" y="341.949" width="23.566" height="4.713" rx="1.731"/><rect class="cls-38" x="1204.066" y="339.549" width="24.156" height="4.713" rx="1.731"/><path class="cls-35" d="M3723.235,547.4c-3.713,0-8-.111-12.895-.392-25.513-1.463-37.975-24.282-38.493-25.253a2.647,2.647,0,0,1,4.669-2.5h0c.114.212,11.632,21.171,34.127,22.464,20.721,1.182,30.209-.8,30.3-.817a48.23,48.23,0,0,0,34.23-29.98c8.35-21.195-12.479-42.692-12.69-42.906a2.648,2.648,0,1,1,3.773-3.716c.962.977,23.441,24.2,13.844,48.563-11.125,28.237-37.047,33.044-38.145,33.234C3741.723,546.155,3735.782,547.4,3723.235,547.4Z" transform="translate(-2509.835 -207.286)"/><rect class="cls-38" x="1200.565" y="336.799" width="24.384" height="4.713" rx="1.731"/><rect class="cls-38" x="1197.107" y="334.181" width="25.049" height="4.713" rx="1.731"/><rect class="cls-39" x="3726.144" y="547.227" width="20.685" height="4.713" rx="1.731" transform="translate(-1213.015 -2540.652) rotate(41.393)"/><rect class="cls-38" x="3705.458" y="547.053" width="20.685" height="4.713" rx="1.731" transform="translate(-1218.298 -2527.018) rotate(41.393)"/><path class="cls-40" d="M3669.524,505.584a2.648,2.648,0,0,1-2.632-2.394c-.035-.371-.846-9.137,1.182-14.97a2.648,2.648,0,1,1,5,1.738c-1.372,3.943-1.124,10.524-.913,12.725a2.647,2.647,0,0,1-2.383,2.889A2.437,2.437,0,0,1,3669.524,505.584Z" transform="translate(-2509.835 -207.286)"/><path class="cls-40" d="M3677.556,475.209a2.648,2.648,0,0,1-2.055-4.315c.646-.794,16.022-19.491,33.186-19.132a2.648,2.648,0,0,1-.057,5.3h-.058c-.131,0-.265,0-.4,0-14.418,0-28.422,17.007-28.563,17.181A2.644,2.644,0,0,1,3677.556,475.209Z" transform="translate(-2509.835 -207.286)"/><path class="cls-28" d="M3870.033,539.162l13.623,6.444a1.742,1.742,0,0,0,2.348-1.748l.519-12.477a1.74,1.74,0,0,0-2.187-1.935l-14.1,5.217" transform="translate(-2509.835 -207.286)"/><rect class="cls-29" x="3883.001" y="531.884" width="3.293" height="11.815" rx="1.209" transform="translate(-2479.858 -391.453) rotate(2.726)"/><rect class="cls-30" x="1342.672" y="337.056" width="25.391" height="17.473" rx="8.737"/><rect class="cls-30" x="3850.549" y="510.799" width="26.301" height="18.1" rx="9.05" transform="translate(-2540.235 127.069) rotate(-4.936)"/><rect class="cls-31" x="1310.579" y="305.71" width="57.367" height="47.884" rx="23.942"/><path class="cls-32" d="M3846.338,541.723a6.461,6.461,0,0,1-.581,1.111,6.216,6.216,0,1,1,.581-1.111Z" transform="translate(-2509.835 -207.286)"/><circle class="cls-32" cx="1325.768" cy="344.951" r="1.426"/><polyline class="cls-32" points="1327.091 345.485 1335.522 336.091 1324.89 331.837 1324.446 344.417"/><path class="cls-33" d="M3824.584,549.832a1.971,1.971,0,0,1-.442.2,2.828,2.828,0,0,1-3.092-1.471,2.428,2.428,0,1,1,3.534,1.276Z" transform="translate(-2509.835 -207.286)"/><ellipse class="cls-33" cx="3818.55" cy="550.048" rx="0.548" ry="0.689" transform="translate(-2252.235 1827.185) rotate(-30.826)"/><polyline class="cls-33" points="1309.068 343.354 1314.05 342.801 1311.202 338.056 1308.362 342.171"/><circle class="cls-34" cx="1324.145" cy="333.851" r="3.527"/><path class="cls-35" d="M3852.142,556.147a.888.888,0,0,1-.848-1.15c.005-.018.6-2.043-.321-3.232a9.47,9.47,0,0,1-1.825-4.894,13.654,13.654,0,0,1,1.213-5.781c.945-1.8-.076-4.242-.086-4.266a36.814,36.814,0,0,1-2.291-7.493c-.44-3.206,2.018-8.578,2.122-8.805a.888.888,0,0,1,1.613.744c-.654,1.418-2.282,5.585-1.976,7.82a35.7,35.7,0,0,0,2.162,7.032c.053.121,1.381,3.222.027,5.8a12.031,12.031,0,0,0-1.01,4.9h0a7.776,7.776,0,0,0,1.453,3.86c1.5,1.924.652,4.728.615,4.847A.888.888,0,0,1,3852.142,556.147Z" transform="translate(-2509.835 -207.286)"/><path class="cls-35" d="M3858.231,551.816a.889.889,0,0,1-.77-.443c-.452-.783-4.342-7.736-1.526-10.82a3.385,3.385,0,0,0,.137-4.409c-3.636-4.145-.38-11.929-.239-12.258a.888.888,0,0,1,1.633.7c-.03.07-2.959,7.086-.032,10.423a5.142,5.142,0,0,1-.188,6.746c-1.649,1.805.774,7.04,1.753,8.732a.889.889,0,0,1-.768,1.333Z" transform="translate(-2509.835 -207.286)"/><path class="cls-35" d="M3863.556,546.313a.882.882,0,0,1-.555-.2,5.577,5.577,0,0,1-1.562-7.16c.2-.456.718-2.133.013-2.87-1.55-1.619-.5-6.145-.278-7.036a.888.888,0,0,1,1.722.436c-.535,2.117-.727,4.781-.161,5.373,1.683,1.76.342,4.776.284,4.9a3.808,3.808,0,0,0,1.094,4.97.888.888,0,0,1-.557,1.58Z" transform="translate(-2509.835 -207.286)"/><path class="cls-36" d="M3868.02,561.781a.888.888,0,0,1-.011-1.776c3.764-.046,7.1-1.814,8.3-4.4,1.137-2.448.357-5.419-2.256-8.591a.888.888,0,0,1,1.371-1.129c3.888,4.72,3.5,8.3,2.5,10.468-1.5,3.241-5.386,5.373-9.888,5.428Z" transform="translate(-2509.835 -207.286)"/><path class="cls-37" d="M3873.981,526.8a1.331,1.331,0,0,1-1.107-2.07c1.865-2.8,2.2-6.232.823-8.541s-4.359-3.389-8.41-3.027a1.332,1.332,0,1,1-.237-2.653c6.912-.623,9.82,2.44,10.937,4.319,1.914,3.22,1.562,7.686-.9,11.378A1.33,1.33,0,0,1,3873.981,526.8Z" transform="translate(-2509.835 -207.286)"/><rect class="cls-38" x="1337.199" y="356.452" width="12.6" height="2.371" rx="0.688"/><rect class="cls-38" x="1335.443" y="354.871" width="12.6" height="2.371" rx="0.688"/><rect class="cls-38" x="1334.377" y="353.664" width="12.02" height="2.371" rx="0.688"/><path class="cls-35" d="M3848.776,561.234c-1.867,0-4.025-.056-6.486-.2-12.833-.736-19.1-12.214-19.362-12.7a1.331,1.331,0,0,1,2.348-1.256h0c.058.107,5.851,10.65,17.167,11.3,10.422.6,15.195-.4,15.242-.411a24.259,24.259,0,0,0,17.218-15.08c4.2-10.662-6.277-21.475-6.383-21.582a1.332,1.332,0,0,1,1.9-1.87c.484.492,11.791,12.173,6.963,24.428a26.919,26.919,0,0,1-19.187,16.717A49.68,49.68,0,0,1,3848.776,561.234Z" transform="translate(-2509.835 -207.286)"/><rect class="cls-38" x="1332.906" y="352.281" width="11.844" height="2.371" rx="0.688"/><rect class="cls-38" x="1330.746" y="350.964" width="12.6" height="2.371" rx="0.871"/><rect class="cls-39" x="3850.239" y="561.147" width="10.405" height="2.371" rx="0.688" transform="translate(-1174.868 -2616.124) rotate(41.393)"/><rect class="cls-38" x="3839.834" y="561.059" width="10.405" height="2.371" rx="0.688" transform="translate(-1177.526 -2609.266) rotate(41.393)"/><path class="cls-40" d="M3821.759,540.2a1.332,1.332,0,0,1-1.324-1.2c-.017-.186-.425-4.6.6-7.53a1.332,1.332,0,0,1,2.516.874,18.666,18.666,0,0,0-.459,6.4,1.332,1.332,0,0,1-1.2,1.453A1.114,1.114,0,0,1,3821.759,540.2Z" transform="translate(-2509.835 -207.286)"/><path class="cls-40" d="M3825.8,524.921a1.331,1.331,0,0,1-1.033-2.17c.325-.4,8.059-9.8,16.693-9.624a1.332,1.332,0,0,1-.029,2.664h-.03c-.065,0-.133,0-.2,0-7.252,0-14.3,8.555-14.368,8.642A1.327,1.327,0,0,1,3825.8,524.921Z" transform="translate(-2509.835 -207.286)"/><path class="cls-41" d="M2955.205,1095.7a4.053,4.053,0,0,1-2.124-.6c-15.734-9.633-12.245-20.929-12.089-21.4l7.744,2.541.036-.118c-.062.24-1.392,5.935,8.565,12.031a4.075,4.075,0,0,1-2.132,7.551Z" transform="translate(-2509.835 -207.286)"/><path class="cls-42" d="M2921.354,1099.859a4.075,4.075,0,0,1-2.809-7.028c.249-.243,4.913-4.931,4.913-13.84a4.076,4.076,0,0,1,8.151,0c0,12.64-7.168,19.486-7.473,19.771A4.062,4.062,0,0,1,2921.354,1099.859Z" transform="translate(-2509.835 -207.286)"/><rect class="cls-43" x="395.128" y="850.478" width="45.41" height="23.78" rx="11.89"/><rect class="cls-43" x="399.606" y="844.791" width="45.41" height="23.78" rx="8.753"/><path class="cls-44" d="M2969.789,1048.494h-7.127c-8.68,0-15.783,7.5-15.783,16.659h0a17.191,17.191,0,0,0,2.239,8.489,14.942,14.942,0,0,0,6.925,1.721h14.128c7.294,0,13.455-5.3,15.243-12.426C2984.377,1054.815,2977.757,1048.494,2969.789,1048.494Z" transform="translate(-2509.835 -207.286)"/><path class="cls-45" d="M2970.171,1075.363h-14.128a14.942,14.942,0,0,1-6.925-1.721,15.661,15.661,0,0,0,13.544,8.17h7.127c8.681,0,15.783-7.5,15.783-16.659h0a17.406,17.406,0,0,0-.158-2.216C2983.626,1070.063,2977.465,1075.363,2970.171,1075.363Z" transform="translate(-2509.835 -207.286)"/><rect class="cls-46" x="456.226" y="849.941" width="12.181" height="12.181" rx="6.09"/><path class="cls-26" d="M2900.034,1059.637h54.638c-3.19-11.353-14.225-19.741-27.389-19.741s-24.2,8.391-27.39,19.749C2899.94,1059.644,2899.986,1059.637,2900.034,1059.637Z" transform="translate(-2509.835 -207.286)"/><path class="cls-47" d="M2904.7,1066.55a4.85,4.85,0,0,1-.817-.071,4.755,4.755,0,0,1-3.874-5.5c3-17.351,20.826-21.429,29.82-21.137a4.755,4.755,0,0,1-.276,9.505h0c-.727-.02-17.834-.278-20.174,13.254A4.756,4.756,0,0,1,2904.7,1066.55Z" transform="translate(-2509.835 -207.286)"/><rect class="cls-48" x="384.783" y="851.889" width="32.109" height="12.091" rx="6.046"/><path class="cls-49" d="M2961.6,1075.468c-.1,0-.207,0-.311-.014-5.125-.466-7.907-2.961-9.339-4.972-4-5.618-2.2-13.525-1.98-14.407a3.4,3.4,0,0,1,6.595,1.622c-.379,1.578-.95,6.241.927,8.858a5.7,5.7,0,0,0,4.411,2.136,3.4,3.4,0,0,1-.3,6.777Z" transform="translate(-2509.835 -207.286)"/><path class="cls-49" d="M2957.5,1075.46c-5.779,0-9.452-1.552-11.177-4.7-3.3-6.029,3.18-14.532,3.929-15.482a2.717,2.717,0,0,1,4.265,3.367c-2.052,2.616-4.559,7.444-3.427,9.509.871,1.587,4.569,2.219,9.893,1.688a2.717,2.717,0,1,1,.538,5.407Q2959.366,1075.461,2957.5,1075.46Z" transform="translate(-2509.835 -207.286)"/><circle class="cls-50" cx="438.522" cy="860.689" r="5.777"/><ellipse class="cls-51" cx="460.391" cy="853.434" rx="2.687" ry="2.553"/><path class="cls-52" d="M2927.536,1096.5a4.075,4.075,0,0,1-2.523-7.277c2.84-2.235,6.181-4.968,7.593-6.251.075-1.682-.06-5.307-.27-8.259a4.075,4.075,0,1,1,8.129-.581c.767,10.728,0,11.949-.609,12.929-.341.545-1.049,1.678-9.8,8.566A4.058,4.058,0,0,1,2927.536,1096.5Z" transform="translate(-2509.835 -207.286)"/><path class="cls-52" d="M2907.378,1084.417c-3.9,0-13.041-1.24-14.121-1.388a4.075,4.075,0,0,1,1.11-8.075,129,129,0,0,0,13.248,1.308c.906-.037,3.078-1.511,4.273-2.7a4.075,4.075,0,1,1,5.764,5.763c-.816.815-5.118,4.9-9.7,5.086C2907.778,1084.414,2907.585,1084.417,2907.378,1084.417Z" transform="translate(-2509.835 -207.286)"/><polygon class="cls-53" points="645.451 335.382 646.433 334.086 653.193 336.044 642.52 384.734 635.761 382.776 645.451 335.382"/><circle class="cls-54" cx="488.217" cy="635.71" r="14.867"/><circle class="cls-55" cx="488.217" cy="635.71" r="10.177"/><circle class="cls-54" cx="490.727" cy="712.598" r="14.867"/><circle class="cls-55" cx="490.727" cy="712.598" r="10.177"/><circle class="cls-54" cx="435.747" cy="690.357" r="14.867"/><circle class="cls-55" cx="435.747" cy="690.357" r="10.177"/><circle class="cls-54" cx="437.365" cy="651.892" r="14.867"/><circle class="cls-55" cx="437.365" cy="651.892" r="10.177"/><path class="cls-56" d="M3002.5,840.837s31.872,5.173,45.721,21.436,9.678,23.826,9.678,23.826,4.909,17.217-44.633,34.616c0,0-12.685,2.941-21.559-3.031,0,0-58.668-19.968-61.427-27.441,0,0-16.238-8.054-.81-21.357S3002.5,840.837,3002.5,840.837Z" transform="translate(-2509.835 -207.286)"/><path class="cls-57" d="M2982.693,915.883a144.984,144.984,0,0,0,16.355,5.052c21.241,4.818,46.126-15.481,47.175-16.347a2.27,2.27,0,0,0-2.891-3.5c-.24.2-24.221,19.744-43.28,15.421-19.266-4.374-58.969-23.13-61.907-24.525-1.075-.77-8.793-6.556-8.579-13.511.14-4.52,3.652-8.856,10.44-12.885a2.27,2.27,0,0,0-2.317-3.9c-8.221,4.879-12.48,10.489-12.661,16.671-.29,9.939,10.249,17.175,10.7,17.478l.292.167C2937.356,896.638,2962.1,908.428,2982.693,915.883Z" transform="translate(-2509.835 -207.286)"/><path class="cls-58" d="M2954.162,859.793a3.008,3.008,0,0,0,2.016.086l32.155-9.842a3.026,3.026,0,1,0-1.771-5.787l-32.155,9.842a3.026,3.026,0,0,0-.245,5.7Z" transform="translate(-2509.835 -207.286)"/><path class="cls-58" d="M3037.108,860.027a3.027,3.027,0,0,0,2.785-5.259c-.637-.5-15.742-12.392-27.864-12.09a3.026,3.026,0,1,0,.15,6.05c8.258-.2,20.088,7.713,23.949,10.78A3.011,3.011,0,0,0,3037.108,860.027Z" transform="translate(-2509.835 -207.286)"/><path class="cls-51" d="M3023.8,913.844a7.56,7.56,0,0,1-6.229-3.261c-20.1-29.038-5.723-60.083-5.1-61.39a7.567,7.567,0,0,1,13.679,6.473c-.479,1.029-11.148,24.61,3.866,46.3a7.567,7.567,0,0,1-6.215,11.873Z" transform="translate(-2509.835 -207.286)"/><path class="cls-51" d="M2966.969,909.609a7.566,7.566,0,0,1-6.783-4.2c-12.614-25.414-.475-49.179.047-50.178a7.567,7.567,0,0,1,13.424,6.986c-.391.767-9.019,18.124.084,36.463a7.568,7.568,0,0,1-6.772,10.932Z" transform="translate(-2509.835 -207.286)"/><rect class="cls-59" x="2951.152" y="903.795" width="29.634" height="6.386" rx="3.193" transform="translate(2936.152 2562.255) rotate(-160.096)"/><rect class="cls-59" x="3015.482" y="908.592" width="24.764" height="6.928" rx="3.464" transform="translate(3646.894 246.495) rotate(154.904)"/><rect class="cls-60" x="3045.156" y="884.219" width="17.138" height="6.436" rx="3.218" transform="translate(3621.591 1480.492) rotate(178.372)"/><rect class="cls-61" x="2906.396" y="857.389" width="18.409" height="45.498" rx="9.204" transform="translate(3347.861 1459.898) rotate(178.179)"/><rect class="cls-51" x="2921.925" y="865.654" width="5.987" height="27.354" rx="2.993" transform="translate(3366.895 1456.377) rotate(178.148)"/><rect class="cls-62" x="2905.401" y="860.49" width="7.184" height="37.66" rx="3.592" transform="translate(3330.643 1473.179) rotate(178.466)"/><path class="cls-58" d="M2986,903.289c8.274-2.508,12.442-12.92,9.309-23.255s-12.381-16.679-20.655-14.171" transform="translate(-2509.835 -207.286)"/><ellipse class="cls-58" cx="2980.197" cy="885.554" rx="3.792" ry="16.273" transform="translate(-2634.685 834.671) rotate(-19.433)"/><path class="cls-62" d="M2973.569,887.885c-3.049-7.733-3.587-13.942-1.6-18.458a9.19,9.19,0,0,1,4.686-4.964,2.246,2.246,0,0,1,2.883,1.265,2.3,2.3,0,0,1-1.207,2.954c-.26.114-6.28,2.977-.538,17.538,5.016,12.72,8.234,13.935,8.732,14.054a2.27,2.27,0,0,1,2.56,3.726,4.227,4.227,0,0,1-3.729.665c-.176-.045-.353-.1-.529-.163C2981.135,903.165,2977.446,897.717,2973.569,887.885Zm12.61,12.627,0,0Zm0,0,0,0Z" transform="translate(-2509.835 -207.286)"/><path class="cls-63" d="M2992.935,887.463s-1.935,6.515-4.943,6.912" transform="translate(-2509.835 -207.286)"/><line class="cls-63" x1="471.554" y1="677.482" x2="481.582" y2="674.11"/><path class="cls-63" d="M2989.092,876.1s-4.531-3.02-8.714-1.139" transform="translate(-2509.835 -207.286)"/><ellipse class="cls-64" cx="3036.232" cy="873.829" rx="7.955" ry="7.882" transform="translate(-1328.899 3223.917) rotate(-70.096)"/><ellipse class="cls-65" cx="3036.232" cy="873.829" rx="6.948" ry="6.885" transform="translate(-1328.899 3223.917) rotate(-70.096)"/><ellipse class="cls-66" cx="3036.232" cy="873.829" rx="5.488" ry="5.438" transform="translate(-1328.899 3223.917) rotate(-70.096)"/><ellipse class="cls-67" cx="3037.223" cy="871.533" rx="2.517" ry="2.494" transform="translate(-1326.087 3223.334) rotate(-70.096)"/><circle class="cls-54" cx="387.671" cy="546.837" r="10.779"/><circle class="cls-55" cx="387.671" cy="546.837" r="7.379"/><circle class="cls-54" cx="389.491" cy="602.583" r="10.779"/><circle class="cls-55" cx="389.491" cy="602.583" r="7.379"/><circle class="cls-54" cx="349.629" cy="586.457" r="10.779"/><circle class="cls-55" cx="349.629" cy="586.457" r="7.379"/><circle class="cls-54" cx="350.802" cy="558.569" r="10.779"/><circle class="cls-55" cx="350.802" cy="558.569" r="7.379"/><path class="cls-56" d="M2900.727,752.558s23.108,3.75,33.149,15.541,7.017,17.274,7.017,17.274,3.559,12.483-32.36,25.1c0,0-9.2,2.132-15.631-2.2,0,0-42.536-14.478-44.536-19.9,0,0-11.773-5.839-.587-15.484S2900.727,752.558,2900.727,752.558Z" transform="translate(-2509.835 -207.286)"/><path class="cls-57" d="M2886.37,806.968a105.131,105.131,0,0,0,11.858,3.662c15.4,3.494,33.442-11.224,34.2-11.852a1.646,1.646,0,0,0-2.1-2.538c-.174.144-17.561,14.315-31.379,11.181-13.969-3.172-42.754-16.77-44.884-17.781-.779-.559-6.375-4.754-6.22-9.8.1-3.278,2.648-6.421,7.569-9.342a1.646,1.646,0,0,0-1.68-2.831c-5.96,3.538-9.048,7.6-9.179,12.087-.21,7.206,7.431,12.452,7.756,12.672l.212.121C2853.5,793.015,2871.442,801.562,2886.37,806.968Z" transform="translate(-2509.835 -207.286)"/><path class="cls-58" d="M2865.685,766.3a2.179,2.179,0,0,0,1.461.063l23.314-7.136a2.194,2.194,0,1,0-1.284-4.2l-23.314,7.136a2.194,2.194,0,0,0-.177,4.133Z" transform="translate(-2509.835 -207.286)"/><path class="cls-58" d="M2925.822,766.471a2.195,2.195,0,0,0,2.02-3.813c-.462-.367-11.414-8.985-20.2-8.766a2.194,2.194,0,1,0,.108,4.387c5.987-.148,14.565,5.592,17.364,7.815A2.186,2.186,0,0,0,2925.822,766.471Z" transform="translate(-2509.835 -207.286)"/><path class="cls-51" d="M2916.176,807.569a7.554,7.554,0,0,1-6.228-3.26c-15.247-22.032-4.339-45.595-3.867-46.587a7.567,7.567,0,0,1,13.682,6.467c-.358.778-7.521,16.843,2.628,31.508a7.567,7.567,0,0,1-6.215,11.872Z" transform="translate(-2509.835 -207.286)"/><path class="cls-51" d="M2874.972,804.5a7.566,7.566,0,0,1-6.783-4.2c-9.613-19.364-.345-37.507.054-38.269A7.567,7.567,0,0,1,2881.672,769c-.292.58-6.019,12.293.071,24.564a7.57,7.57,0,0,1-6.771,10.933Z" transform="translate(-2509.835 -207.286)"/><rect class="cls-59" x="2863.502" y="798.203" width="21.485" height="4.63" rx="2.315" transform="translate(2794.43 2324.45) rotate(-160.096)"/><rect class="cls-59" x="2910.143" y="801.682" width="17.955" height="5.023" rx="2.512" transform="translate(3393.923 87.073) rotate(154.904)"/><rect class="cls-60" x="2931.658" y="784.011" width="12.426" height="4.666" rx="2.333" transform="translate(3387.056 1281.637) rotate(178.372)"/><rect class="cls-61" x="2831.053" y="764.558" width="13.347" height="32.987" rx="6.673" transform="translate(3189.004 1264.25) rotate(178.179)"/><rect class="cls-51" x="2842.312" y="770.55" width="4.34" height="19.832" rx="2.17" transform="translate(3202.869 1261.301) rotate(178.148)"/><rect class="cls-62" x="2830.332" y="766.806" width="5.209" height="27.304" rx="2.604" transform="translate(3175.91 1277.529) rotate(178.466)"/><path class="cls-58" d="M2888.771,797.837c6-1.819,9.021-9.368,6.749-16.861s-8.976-12.093-14.975-10.274" transform="translate(-2509.835 -207.286)"/><ellipse class="cls-58" cx="2884.561" cy="784.978" rx="2.749" ry="11.799" transform="translate(-2606.672 797.123) rotate(-19.433)"/><path class="cls-62" d="M2879.755,786.669c-2.21-5.607-2.6-10.109-1.16-13.383a6.662,6.662,0,0,1,3.4-3.6,1.629,1.629,0,0,1,2.09.917,1.665,1.665,0,0,1-.876,2.142c-.187.083-4.552,2.158-.39,12.715,3.637,9.222,5.971,10.1,6.331,10.19a1.646,1.646,0,0,1,1.856,2.7,3.059,3.059,0,0,1-2.7.482c-.128-.032-.256-.072-.384-.118C2885.24,797.747,2882.566,793.8,2879.755,786.669Zm9.143,9.154,0,0Zm0,0h0Z" transform="translate(-2509.835 -207.286)"/><path class="cls-63" d="M2893.8,786.362s-1.4,4.724-3.584,5.012" transform="translate(-2509.835 -207.286)"/><line class="cls-63" x1="375.59" y1="577.123" x2="382.861" y2="574.678"/><path class="cls-63" d="M2891.009,778.121s-3.284-2.189-6.317-.825" transform="translate(-2509.835 -207.286)"/><ellipse class="cls-64" cx="2925.188" cy="776.477" rx="5.767" ry="5.715" transform="translate(-1310.603 3055.296) rotate(-70.096)"/><ellipse class="cls-65" cx="2925.188" cy="776.477" rx="5.037" ry="4.992" transform="translate(-1310.603 3055.296) rotate(-70.096)"/><ellipse class="cls-66" cx="2925.188" cy="776.477" rx="3.979" ry="3.943" transform="translate(-1310.603 3055.296) rotate(-70.096)"/><ellipse class="cls-67" cx="2925.906" cy="774.813" rx="1.825" ry="1.809" transform="translate(-1308.565 3054.874) rotate(-70.096)"/><rect class="cls-19" x="2967.832" y="502.14" width="200.176" height="68.526" rx="34.263" transform="translate(-2111.673 -1274.707) rotate(21.077)"/><path d="M3051.242,567.063c-16.879-51.165,23.473-64.615,23.473-64.615l40.351,15.032s-39.033,10.814-24.791,64.352Z" transform="translate(-2509.835 -207.286)"/><rect class="cls-68" x="3153.543" y="549.243" width="11.176" height="7.319" rx="3.659" transform="translate(-256.94 -2730.833) rotate(63.659)"/><ellipse class="cls-53" cx="3150.932" cy="565.716" rx="24.923" ry="14.505" transform="translate(-586.167 3315.157) rotate(-77.636)"/><ellipse class="cls-18" cx="3157.691" cy="567.675" rx="24.923" ry="14.505" transform="translate(-582.768 3323.299) rotate(-77.636)"/><path class="cls-14" d="M3164.93,577.039l-.145-.032L3160.2,576a6.348,6.348,0,0,1-4.827-7.538h0a6.348,6.348,0,0,1,7.538-4.828l4.734,1.038,2.173.476-2.731,12.463" transform="translate(-2509.835 -207.286)"/><ellipse class="cls-69" cx="3168.756" cy="571.472" rx="6.379" ry="2.968" transform="translate(-577.782 3337.091) rotate(-77.636)"/><ellipse class="cls-69" cx="3159.901" cy="574.711" rx="5.275" ry="5.407" transform="translate(-587.905 3330.987) rotate(-77.636)"/><ellipse class="cls-14" cx="3159.019" cy="576.118" rx="5.275" ry="5.407" transform="translate(-589.972 3331.23) rotate(-77.636)"/><rect class="cls-5" x="2708.073" y="447.87" width="64.461" height="32.044" rx="16.022" transform="translate(-2358.811 -753.389) rotate(11.701)"/><rect class="cls-11" x="2977.919" y="613.617" width="135.828" height="44.44" rx="21.099" transform="translate(-2344.56 -747.787) rotate(10.422)"/><path class="cls-20" d="M3778.405,1108c-17.533,0-31.8-14.04-31.8-31.3a31.043,31.043,0,0,1,14.928-26.493,17.2,17.2,0,0,1,6.989-7.059,37.577,37.577,0,0,1-12.635-28.1v-13.013a37.745,37.745,0,0,1,37.7-37.7h62.176a37.352,37.352,0,0,1-.526-22.48c.229-.788.456-1.5.695-2.168a37.846,37.846,0,0,1,35.464-25.131h62.02l.289.5a16.953,16.953,0,0,1,2.315,8.52V926.1a16.793,16.793,0,0,1-1.685,7.324A17.071,17.071,0,0,1,3939,943.127h-24.082a15.514,15.514,0,0,0-5.579,5.772,14.98,14.98,0,0,0-1.822,7.15v2.531a14.8,14.8,0,0,0,1.424,6.325,15.194,15.194,0,0,0,10.136,8.284h32.157a17.047,17.047,0,0,1,14.715,8.511,16.784,16.784,0,0,1,2.248,7.175c.036.445.068.892.068,1.345v2.531a16.716,16.716,0,0,1-.258,2.84,16.994,16.994,0,0,1-12.962,13.744l-2.933.784-33.948.5-33.03.594-37.449-1.029-1.2-.124,3.555,31.054h26.527a17.08,17.08,0,0,1,17.031,17.03v2.531a17.116,17.116,0,0,1-17.031,17.031h-21.826c-.02.311-.03.593-.03.866a18.061,18.061,0,0,0,18.2,17.883H3982l-1.623,1.693a32.163,32.163,0,0,1-23.1,9.853Zm65.985-97.782a15.026,15.026,0,0,0-9.018,13.754v2.531a15.17,15.17,0,0,0,10.385,14.277Z" transform="translate(-2509.835 -207.286)"/><path class="cls-20" d="M3845.333,1008.933l2.374.247,37.4,1.029,33.033-.594,33.825-.494,2.846-.761a16.1,16.1,0,0,0,12.2-12.937,15.907,15.907,0,0,0,.243-2.672V990.22c0-.427-.032-.847-.065-1.266a15.862,15.862,0,0,0-2.115-6.749,16.108,16.108,0,0,0-10.785-7.712,15.9,15.9,0,0,0-3.066-.3h-32.273a16.121,16.121,0,0,1-10.926-8.859,15.859,15.859,0,0,1-1.519-6.75v-2.531a15.88,15.88,0,0,1,1.945-7.629h0a16.487,16.487,0,0,1,6.187-6.293H3939a15.942,15.942,0,0,0,10.318-3.8,16.175,16.175,0,0,0,4.126-5.344,15.857,15.857,0,0,0,1.587-6.89v-2.532a15.873,15.873,0,0,0-2.18-8.015H3891.4a36.84,36.84,0,0,0-34.524,24.467c-.247.694-.47,1.4-.676,2.109a36.341,36.341,0,0,0,.991,23.2h-63.6a36.81,36.81,0,0,0-36.7,36.7v13.013a36.669,36.669,0,0,0,13.437,28.33l.009.007a16.181,16.181,0,0,0-8.04,7.531,15.861,15.861,0,0,0-1.75,7.227v-.117a15.4,15.4,0,0,1,1.75-7.11,30.249,30.249,0,0,0-14.687,25.787c0,16.663,13.858,30.3,30.8,30.3h178.871a30.954,30.954,0,0,0,22.376-9.545H3872.9a19.1,19.1,0,0,1-19.2-18.884,17.422,17.422,0,0,1,.115-1.866h22.741a16.043,16.043,0,0,0,13.594-7.593,15.884,15.884,0,0,0,2.437-8.437v-2.532a15.871,15.871,0,0,0-1.347-6.393,16.128,16.128,0,0,0-3.9-5.419,15.942,15.942,0,0,0-10.782-4.219h-29.742c.24.056.482.1.726.149-.244-.046-.486-.093-.726-.149m2.336.117-2.336-.117a16.083,16.083,0,0,1-12.445-15.609v-2.531a16.082,16.082,0,0,1,10.952-15.187m77.216-34.171c-.392,0-.778-.024-1.162-.054.385.03.772.054,1.164.054Zm-2.71-.243c.441.078.888.139,1.34.18C3920.718,974.507,3920.271,974.446,3919.83,974.368ZM3858,1043.375a15.6,15.6,0,0,0,3.233-.352A15.6,15.6,0,0,1,3858,1043.375Z" transform="translate(-2509.835 -207.286)"/><path class="cls-21" d="M3978.427,1108.525l0-.033h-12.837a20.78,20.78,0,0,1,0-41.56h29.307c-3.334-4.37-7.935-7.4-12.489-8.213h-1.035v-.574l-.024.017v.557h-34.621a20.013,20.013,0,0,1-14.583-6.28,20.28,20.28,0,0,1-3.84-5.7,19.929,19.929,0,0,1-1.773-8.214,20.171,20.171,0,0,1,4.828-13.051,20.379,20.379,0,0,1,8.235-5.814,20.008,20.008,0,0,1,7.133-1.331h71.284a18.445,18.445,0,0,0,8.7-7.135q.255-.394.488-.8a18.211,18.211,0,0,0-15.782-27.191h-32.211a20.195,20.195,0,0,1,0-40.389h28.532a16.512,16.512,0,0,0,6.018-5.072,16.135,16.135,0,0,0-.836-20.135l-2.18-2.53,3.212.915a38.163,38.163,0,0,1,24.325,21.338h7.588a37.471,37.471,0,0,1,19.884,5.716,37.78,37.78,0,0,1,17.728,29.426,37.925,37.925,0,0,1,31.219,34.7l.07,1.066h-3.355a14.409,14.409,0,0,0-14.344,14.343v2.545a14.3,14.3,0,0,0,4.44,10.333l.049-.041.716.477a14.323,14.323,0,0,0,9.183,3.354h63.185a14.414,14.414,0,0,0,13.455-9.438l.768-2.091,1.052,1.964a37.651,37.651,0,0,1-33.259,55.394H4043.683a20.082,20.082,0,0,1,.178,2.636,20.787,20.787,0,0,1-18.713,20.651l-.006.07-.913.092Z" transform="translate(-2509.835 -207.286)"/><path class="cls-21" d="M3927.53,1038.524a19,19,0,0,0,1.684,7.8,19.326,19.326,0,0,0,17.511,11.39h34.621c.062.087.125.173.191.256-.056-.085-.112-.17-.167-.256h1.123c5.3.916,10.339,4.556,13.694,9.286.236.3.452.614.67.927h-31.27a19.781,19.781,0,0,0,0,39.561h13.752l0,.033h44.888c0-.03,0-.062,0-.092a19.679,19.679,0,0,0,18.277-23.357h114.148a36.81,36.81,0,0,0,36.7-36.7h0a36.376,36.376,0,0,0-4.325-17.221,15.388,15.388,0,0,1-14.393,10.1h-63.185a15.26,15.26,0,0,1-9.826-3.589c-.048.043-.1.083-.146.125a15.313,15.313,0,0,1-5.416-11.66v-2.545a15.41,15.41,0,0,1,15.344-15.344h2.287a36.85,36.85,0,0,0-31.174-33.9h0a36.3,36.3,0,0,0-.528-4.684h0a36.876,36.876,0,0,0-16.777-24.753,36.4,36.4,0,0,0-19.354-5.564h-8.25a36.983,36.983,0,0,0-23.937-21.376,17.138,17.138,0,0,1,.886,21.376,17.444,17.444,0,0,1-6.6,5.484h-28.762a18.993,18.993,0,0,0-7.81,1.687,19.246,19.246,0,0,0-11.384,17.508,19.016,19.016,0,0,0,2.838,9.972,19.211,19.211,0,0,0,16.356,9.223h32.211a19.015,19.015,0,0,1,9.38,2.477,19.231,19.231,0,0,1,9.815,16.717,19.016,19.016,0,0,1-2.546,9.493q-.246.428-.514.843a19.343,19.343,0,0,1-9.359,7.594h-71.47a19,19,0,0,0-6.776,1.265,19.326,19.326,0,0,0-7.83,5.527A19.089,19.089,0,0,0,3927.53,1038.524Zm153.7-67.859c-.2.454-.417.9-.653,1.339C4080.813,971.568,4081.027,971.119,4081.23,970.665Z" transform="translate(-2509.835 -207.286)"/><path class="cls-22" d="M3952.261,1108.327l-.021-.066h-96.911a16.246,16.246,0,0,1-2.382-32.316l.032-.243h23.58a15.117,15.117,0,0,0,15.031-15.031v-2.531a14.8,14.8,0,0,0-1.263-5.99,15.176,15.176,0,0,0-13.768-9.04H3846.7l-.111-.026a17.174,17.174,0,0,1-13.22-16.584v-2.531a17.034,17.034,0,0,1,11.633-16.134l.181-.05.051-.007a13.485,13.485,0,0,1,1.87-.1c.858,0,1.824.033,2.653.06.6.021,1.133.039,1.487.039h99.982a14.994,14.994,0,0,0,3.361-.4,15.193,15.193,0,0,0,11.44-12.13,14.76,14.76,0,0,0,.23-2.5V990.22c0-.4-.03-.794-.062-1.187a14.791,14.791,0,0,0-1.982-6.326,15.047,15.047,0,0,0-12.987-7.518h-32.387l-.11-.026a17.207,17.207,0,0,1-11.607-9.408,16.8,16.8,0,0,1-1.613-7.175v-2.531a17.154,17.154,0,0,1,8.635-14.79l.23-.132H3939a15.017,15.017,0,0,0,9.673-3.56,15.285,15.285,0,0,0,3.869-5.013,14.8,14.8,0,0,0,1.488-6.457v-2.531a14.95,14.95,0,0,0-2.043-7.512l-.876-1.5h52.575a37.441,37.441,0,0,1,10.273,1.443l.288.082.2.228a18.134,18.134,0,0,1,.937,22.616,18.475,18.475,0,0,1-6.975,5.8l-.2.1h-28.988a17.938,17.938,0,0,0-7.4,1.6,18.254,18.254,0,0,0-10.794,16.6,18.3,18.3,0,0,0,18.194,18.194h32.211a20.149,20.149,0,0,1,17.517,30.186c-.172.3-.354.6-.541.888a20.471,20.471,0,0,1-9.843,7.986l-.172.065h-71.655a17.965,17.965,0,0,0-6.42,1.2,18.27,18.27,0,0,0-11.776,16.995,17.928,17.928,0,0,0,1.6,7.394,18.318,18.318,0,0,0,3.463,5.139,18.026,18.026,0,0,0,13.136,5.661h32.581l-.09-.134,1.477.134h.919l.078.1c5.664.65,11.346,4.3,15.269,9.831a21.855,21.855,0,0,1,4.281,12.377,20.294,20.294,0,0,1-10.6,17.744h8.81c6.457,0,11.711,3.964,11.711,8.837a6.8,6.8,0,0,1-.316,2.02l-.219.7Z" transform="translate(-2509.835 -207.286)"/><path class="cls-22" d="M3834.372,1023.969v2.531a16.083,16.083,0,0,0,12.445,15.609h29.742a15.942,15.942,0,0,1,10.782,4.219,16.128,16.128,0,0,1,3.9,5.419,15.871,15.871,0,0,1,1.347,6.393v2.532a15.884,15.884,0,0,1-2.437,8.437,16.043,16.043,0,0,1-13.594,7.593h-22.7c-.006.047-.008.094-.014.14a15.3,15.3,0,0,0-13.764,15.172h0a15.292,15.292,0,0,0,15.248,15.247h97.656c.007.022.009.044.016.066h56.886a5.811,5.811,0,0,0,.271-1.723h0c0-4.311-4.82-7.837-10.711-7.837h-12.871c.061-.148.129-.291.185-.441a19.329,19.329,0,0,0,12.72-13.03,19,19,0,0,0,.759-5.273,20.8,20.8,0,0,0-4.1-11.8h0c-3.614-5.1-9.179-8.931-14.927-9.453.093.136.185.283.277.423-.122-.155-.23-.322-.355-.476h-34.413a19.157,19.157,0,0,1-14.606-31.6,19.33,19.33,0,0,1,7.829-5.527h0a19,19,0,0,1,6.776-1.265h71.47a19.343,19.343,0,0,0,9.359-7.594c.178-.277.35-.557.514-.843a19.016,19.016,0,0,0,2.546-9.493,19.231,19.231,0,0,0-9.815-16.717,19.015,19.015,0,0,0-9.38-2.477h-32.211a19.211,19.211,0,0,1-16.356-9.223,19.016,19.016,0,0,1-2.838-9.972A19.246,19.246,0,0,1,3971.4,945.5a18.993,18.993,0,0,1,7.81-1.687h28.762a17.444,17.444,0,0,0,6.6-5.484,17.138,17.138,0,0,0-.886-21.376,36.392,36.392,0,0,0-10-1.405h-50.835a15.873,15.873,0,0,1,2.18,8.015V926.1a15.857,15.857,0,0,1-1.587,6.89,16.175,16.175,0,0,1-4.126,5.344,15.942,15.942,0,0,1-10.318,3.8h-24.352a16.487,16.487,0,0,0-6.187,6.293h0a15.88,15.88,0,0,0-1.945,7.629v2.531a15.859,15.859,0,0,0,1.519,6.75,16.121,16.121,0,0,0,10.926,8.859h32.273a15.9,15.9,0,0,1,3.066.3,16.108,16.108,0,0,1,10.785,7.712,15.862,15.862,0,0,1,2.115,6.749c.033.419.065.839.065,1.266v2.531a15.907,15.907,0,0,1-.243,2.672,16.1,16.1,0,0,1-12.2,12.937,15.9,15.9,0,0,1-3.586.422h-99.982a58.111,58.111,0,0,0-5.862-.015l-.061.015A16.082,16.082,0,0,0,3834.372,1023.969Zm157.569,39.289a19.467,19.467,0,0,1,2.935,2.507A19.467,19.467,0,0,0,3991.941,1063.258Z" transform="translate(-2509.835 -207.286)"/><path class="cls-20" d="M4111.413,1041.468a16.4,16.4,0,0,1-16.344-16.344v-2.545a16.407,16.407,0,0,1,16.344-16.343h3.224l.061.934c.061.929.089,1.709.089,2.456,0,.089,0,.177,0,.266h41.829a37.3,37.3,0,0,1,4.569.289l-.121,1.992h-40.587a8.273,8.273,0,0,0-6.068,2.671,37.257,37.257,0,0,1-1.937,7.7,8.345,8.345,0,0,0,8.005,6.188h51.185a8.29,8.29,0,0,0,8.281-8.281l-.014-.256-.07-2.317,1.734,1.539a37.945,37.945,0,0,1,8.282,10.481l.212.4-.155.421a16.422,16.422,0,0,1-15.332,10.75Z" transform="translate(-2509.835 -207.286)"/><path class="cls-20" d="M4101.512,1010.892a15.253,15.253,0,0,1,9.9-3.657h2.287c.052.792.088,1.587.088,2.391h0c0,.424-.018.845-.033,1.266h42.859a36.5,36.5,0,0,1,4.448.281h-40.588a9.26,9.26,0,0,0-7.016,3.233,36.282,36.282,0,0,1-2.032,8.079,9.313,9.313,0,0,0,9.048,7.25h51.186a9.308,9.308,0,0,0,9.281-9.281c0-.1-.011-.19-.014-.286a37.075,37.075,0,0,1,8.064,10.205,15.387,15.387,0,0,1-14.393,10.094h-63.185a15.4,15.4,0,0,1-15.344-15.343v-2.545A15.317,15.317,0,0,1,4101.512,1010.892Z" transform="translate(-2509.835 -207.286)"/><path class="cls-22" d="M4120.474,1030.735a10.281,10.281,0,1,1,0-20.562h40.648l.061.008a37.46,37.46,0,0,1,20.408,9.239l.322.287.014.431c.01.16.014.237.014.315a10.293,10.293,0,0,1-10.281,10.282Z" transform="translate(-2509.835 -207.286)"/><path class="cls-22" d="M4180.941,1020.454a9.308,9.308,0,0,1-9.281,9.281h-51.186a9.281,9.281,0,0,1,0-18.562h40.588a36.587,36.587,0,0,1,19.865,9C4180.93,1020.264,4180.941,1020.357,4180.941,1020.454Z" transform="translate(-2509.835 -207.286)"/><rect class="cls-11" x="2880.031" y="606.667" width="139.427" height="44.44" rx="21.099" transform="translate(-2530.188 -102.818) rotate(-2.022)"/><rect x="3085.925" y="610.012" width="44.014" height="67.11" rx="22.007" transform="translate(-2574.975 365.333) rotate(-10.418)"/><rect class="cls-5" x="2673.972" y="498.28" width="69.738" height="32.044" rx="16.022" transform="translate(-2349.242 -745.961) rotate(11.701)"/><rect class="cls-5" x="3090.211" y="609.224" width="44.014" height="67.11" rx="22.007" transform="translate(-2574.762 366.095) rotate(-10.418)"/><path class="cls-32" d="M2774.921,456.484l-118.628-63.843c-11.472-6.174-29.426-6.485-34.9-.605l-39.121,42.006c-5.459,5.861,4.794,14.32,19.978,16.483l157.2,22.393" transform="translate(-2509.835 -207.286)"/><ellipse class="cls-70" cx="257.349" cy="257.416" rx="16.221" ry="9.349"/><path class="cls-70" d="M2758.176,453.453l-100.164-53.907c-9.687-5.213-24.846-5.476-29.47-.51L2595.509,434.5c-4.609,4.949,4.048,12.091,16.869,13.917l132.734,18.909" transform="translate(-2509.835 -207.286)"/><polygon class="cls-70" points="229.011 229.924 218.726 230.38 200.264 254.851 202.638 258.499 249.613 265.633 265.086 249.199 229.011 229.924"/><path class="cls-71" d="M3191.319,675.36s-131.425-13.512-33-98.539" transform="translate(-2509.835 -207.286)"/><path class="cls-32" d="M2732.2,504.792l-118.628-63.843c-11.472-6.175-29.426-6.486-34.9-.605l-39.122,42.006c-5.458,5.861,4.794,14.319,19.979,16.482l157.2,22.394" transform="translate(-2509.835 -207.286)"/><ellipse class="cls-70" cx="214.624" cy="305.723" rx="16.221" ry="9.349"/><path class="cls-70" d="M2715.451,501.76l-100.164-53.906c-9.687-5.214-24.846-5.476-29.471-.511l-33.032,35.468c-4.609,4.949,4.047,12.091,16.869,13.917l132.733,18.908" transform="translate(-2509.835 -207.286)"/><polygon class="cls-70" points="186.286 278.231 176 278.687 157.539 303.159 159.912 306.807 206.888 313.94 222.36 297.506 186.286 278.231"/><rect class="cls-14" x="3149.264" y="614.12" width="25.739" height="14.44" rx="7.22" transform="translate(-1945.912 -1492.371) rotate(25.153)"/><rect x="3350.551" y="608.912" width="18.693" height="116.247" rx="8.44" transform="translate(-2536.815 972.495) rotate(-19.838)"/><rect class="cls-18" x="3353.759" y="688.841" width="30.96" height="8.178" rx="3.692" transform="translate(-2545.048 977.202) rotate(-19.838)"/><rect class="cls-18" x="3350.53" y="678.529" width="30.084" height="8.47" rx="3.824" transform="translate(-2541.816 975.354) rotate(-19.838)"/><rect class="cls-72" x="3366.993" y="719.925" width="25.63" height="4.6" rx="2.077" transform="translate(-2554.363 982.527) rotate(-19.838)"/><rect class="cls-5" x="3352.993" y="699.881" width="45.528" height="22.228" rx="6.94" transform="translate(-2550.792 980.485) rotate(-19.838)"/><rect class="cls-11" x="3361.132" y="642.197" width="9.696" height="22.288" rx="4.848" transform="translate(-1061.982 -2396.033) rotate(45)"/><rect class="cls-11" x="3336.407" y="639.458" width="17.407" height="40.352" rx="8.703" transform="translate(-2491.249 1200.091) rotate(-23.824)"/><path class="cls-73" d="M3392.385,717l542.153,476.135s-224.7,243.692-685.186,166.154l118.11-633.19Z" transform="translate(-2509.835 -207.286)"/><path class="cls-26" d="M2742.539,1194.228s7.615-31.715,5.9-49.649l-1.088.66-.692,4.154.791,1.582" transform="translate(-2509.835 -207.286)"/><path class="cls-74" d="M933.633,829.515h273.651a46.088,46.088,0,0,1,46.088,46.088v203.27a0,0,0,0,1,0,0H843.243a0,0,0,0,1,0,0V919.905A90.39,90.39,0,0,1,933.633,829.515Z"/><rect class="cls-75" x="864.752" y="969.992" width="374.068" height="19.686"/><rect class="cls-75" x="862.413" y="997.258" width="387.344" height="19.686"/><rect class="cls-75" x="861.683" y="1023.506" width="375.496" height="19.686"/><rect class="cls-75" x="856.944" y="1050.696" width="395" height="19.686"/><rect class="cls-75" x="858.402" y="874.173" width="374.189" height="19.686"/><rect class="cls-75" x="868.397" y="848.654" width="359.82" height="19.686"/><rect class="cls-75" x="884.073" y="827.51" width="259.201" height="13.853"/><path class="cls-76" d="M3614.96,1301.151l-.74-169.333,137.606-.645v149.6l-122.461,1.757a5.221,5.221,0,0,0,.082,10.441l132.82-1.894-.014-159.953,10-.052-.363,170.439Zm28.882-28.707,88.127-.245,10.76-.026-.8-114.215-10.775-.051-87.309-.478Z" transform="translate(-2509.835 -207.286)"/><path class="cls-76" d="M3771.256,1132.081l-.359,168.432-154.941-.36-.732-167.339,135.6-.636v147.614l-121.475,1.742a6.221,6.221,0,0,0,.1,12.441h.083l133.737-1.908-.014-159.944Zm-27.521,141.09-.816-116.209-11.763-.055-88.314-.484v117.025l89.13-.249Z" transform="translate(-2509.835 -207.286)"/><path class="cls-76" d="M3762.253,1128.989v-21.927c.082-4.067.285-39.852-17.541-50.211a5.184,5.184,0,0,0-2.612-.708,5.22,5.22,0,0,0-2.631,9.733c9.516,5.532,12.6,27.6,12.357,41.08v22.033H3614.485l.568-38.751c.07-.694,1.717-15,12.32-30.5,9.773-14.285,29.33-32.18,66.987-36.306l5.335-.076a95.139,95.139,0,0,1,33.233,10.581c15.551,8.41,34.87,25.222,38.589,57.568l.006.053.285,37.428Zm-21.176-27.716c-.8-40.851-35.913-46.5-46.732-47.26-1.542-.109-2.619-.125-3.124-.125l-.242,0c-18.949.924-32.6,9.226-40.549,24.673a60.9,60.9,0,0,0-6.253,22.183Z" transform="translate(-2509.835 -207.286)"/><path class="cls-76" d="M3694.415,1053.015c-2.17-.153-3.456-.125-3.456-.125-46.749,2.281-47.841,48.85-47.841,48.85l88.854.484,10.118.055C3741.855,1059.746,3705.86,1053.816,3694.415,1053.015Zm76.109,38.607.276,36.368h-7.547v-20.928c.083-4.1.276-40.432-18.039-51.076a6.219,6.219,0,0,0-6.248,10.755c9.082,5.28,12.1,27.383,11.86,40.2v21.053H3615.5l.553-37.737s6.248-57.917,78.417-65.824l5.239-.069S3763.419,1029.834,3770.524,1091.622Z" transform="translate(-2509.835 -207.286)"/><path class="cls-77" d="M3749.826,1128.989v-22.051c.23-12.532-2.653-34.27-11.363-39.334a7.218,7.218,0,1,1,7.255-12.481c18.814,10.934,18.619,47.792,18.535,51.959v21.907Z" transform="translate(-2509.835 -207.286)"/><path class="cls-77" d="M3745.214,1055.986c18.315,10.644,18.122,46.971,18.039,51.076v20.928h-12.427v-21.053c.235-12.813-2.778-34.916-11.86-40.2a6.219,6.219,0,0,1,6.248-10.755Z" transform="translate(-2509.835 -207.286)"/><path class="cls-77" d="M3629.447,1294.975a7.242,7.242,0,0,1-7.219-7.126,7.218,7.218,0,0,1,7.107-7.315l120.491-1.727V1131.182l14.427-.064.014,161.936-134.73,1.921Z" transform="translate(-2509.835 -207.286)"/><path class="cls-77" d="M3763.253,1132.123l.014,159.944-133.737,1.908h-.083a6.221,6.221,0,0,1-.1-12.441l121.475-1.742V1132.178Z" transform="translate(-2509.835 -207.286)"/><polygon class="cls-77" points="1239.991 919.704 1254.418 919.704 1254.418 925.833 1239.991 925.897 1239.991 919.704"/><polygon class="cls-77" points="1253.418 920.704 1253.418 924.837 1240.991 924.892 1240.991 920.704 1253.418 920.704"/><path class="cls-78" d="M3338.216,1133.075l.034-5.01-.359-33.876c.04-.631,1.025-13.78,9.327-29.063,7.661-14.1,23.268-32.632,54.117-40.82l.112-.03.116,0c.213,0,21.565-.626,39.267-.954l.274,1.967c-34.958,9.263-51,29.786-58.3,45.372a78.138,78.138,0,0,0-7.557,31.868v3.039h84.766V1102.2a82.181,82.181,0,0,1,7.613-33.916c7.459-16.223,23.911-36.964,59.929-43.632l.087-.015,30.774-.209.291,1.959c-34.058,10.11-49.407,30.349-56.286,45.548a74.74,74.74,0,0,0-6.861,30.949v.1l-.139,2.678,84.077-.27v-3.371c1.144-36.949,23.584-57.38,42.207-68.02a97.515,97.515,0,0,1,23.727-9.878l.105-.024,48.916-.666.123,1.994c-36.851,4.037-55.96,21.462-65.5,35.368-10.352,15.089-12.015,29.427-12.031,29.569l-.562,38.624-92.467.467-.1-.989-.178-11.235H3512.7l-69.679.068.031,3.165.1,13.18Z" transform="translate(-2509.835 -207.286)"/><path class="cls-78" d="M3442.051,1120.47l.1,12.164-102.925-.553.027-4.008-.359-33.894s3.649-53.232,62.7-68.907c0,0,21.357-.622,39.257-.954-68.395,18.122-66.6,78.238-66.6,78.238v4.008h86.766V1102.2s-2.184-63.806,66.723-76.565l30.687-.207c-66.723,19.808-63.862,77.505-63.862,77.505l-.194,3.732,86.131-.276v-4.368c1.133-36.576,23.485-56.743,41.7-67.152a97.438,97.438,0,0,1,23.458-9.773l48.808-.663c-72.169,7.907-78.417,65.824-78.417,65.824l-.553,37.737-90.5.456h-.083l-.194-12.22H3512.7l-70.691.07Z" transform="translate(-2509.835 -207.286)"/><polygon class="cls-78" points="827.954 923.795 829.387 923.795 933.32 924.354 933.111 950.954 865.055 950.954 865.055 1064.978 864.889 1064.978 864.889 1067.624 949.821 1067.8 949.821 1065.885 949.261 995.163 985.911 995.163 985.733 1067.445 1070.481 1067.621 1070.481 1064.614 1070.304 949.871 1015.526 950.414 1014.542 950.414 1014.124 923.983 1106.385 924.534 1107.126 1093.868 828.794 1093.951 827.954 923.795"/><polygon class="cls-78" points="984.743 1064.586 984.729 1068.443 1071.481 1068.622 1071.481 1064.614 1071.301 948.861 1015.706 949.414 1015.526 949.414 1015.139 924.989 1105.389 925.528 1106.121 1092.868 829.788 1092.951 828.959 924.796 829.388 924.796 932.313 925.348 932.119 949.953 931.497 949.953 874.257 949.953 864.055 949.953 864.055 1063.978 863.889 1063.978 863.889 1068.622 950.821 1068.802 950.821 1065.886 950.268 996.163 984.909 996.163 984.743 1064.586"/><path class="cls-76" d="M3493.565,1102.979c-.029-.6-.639-14.861,7-31.786,7.042-15.61,22.749-36.387,57.579-46.728l.136-.04,2.991-.015,21.505-.138c.956.081,21.232,1.945,27.332,9.411l1.655,1.654-2.364.044c-17.737.124-44.8.5-46.68,1.027a11.377,11.377,0,0,1-1.71.451c-31.9,7.346-51.569,30.765-55.386,65.943l-.1.872-11.912.277Z" transform="translate(-2509.835 -207.286)"/><path class="cls-76" d="M3609.363,1034.354l.027.027s-45.38.318-47.025,1.092c-2.239,1.051-51.172,6.7-57.738,67.221l-10.063.235s-2.861-57.7,63.862-77.505l2.847-.014,21.508-.138S3603.5,1027.1,3609.363,1034.354Z" transform="translate(-2509.835 -207.286)"/><polygon class="cls-79" points="983.725 1069.441 983.747 1063.582 994.702 1063.624 995.483 1063.614 1072.481 1063.614 1072.481 1069.624 983.725 1069.441"/><polygon class="cls-79" points="995.483 1064.628 995.483 1064.614 1070.942 1064.614 1071.481 1064.614 1071.481 1068.622 984.729 1068.443 984.743 1064.586 995.483 1064.628"/><polygon class="cls-79" points="983.779 894.664 994.768 894.409 1071.666 893.722 1071.666 900.096 983.481 900.378 983.779 894.664"/><polygon class="cls-79" points="1070.666 894.731 1070.666 899.099 984.535 899.375 984.729 895.643 994.792 895.408 1070.666 894.731"/><polygon class="cls-76" points="1002.957 996.163 1001.851 907.941 1015.875 907.941 1016.084 921.145 1016.139 924.974 1017.274 997.144 1002.957 997.403 1002.957 996.163"/><polygon class="cls-76" points="1015.139 924.989 1015.526 949.414 1016.259 996.163 1003.956 996.384 1003.956 996.163 1002.864 908.941 1014.89 908.941 1015.084 921.16 1015.139 924.989"/><path class="cls-78" d="M3440.6,1204.448l.353-47.217.193-24.605-.1-13.157,70.582.042.074-3.307,2,.01,1.106,88.234Zm37.2-58.055c-8.749.186-13.077,4.517-13.233,13.241-.113,5.854,5.153,9.411,5.206,9.446l.443.294.184,21.308v2.009l14.7-.17.065-1.865-.1-20.972.4-.3a11.738,11.738,0,0,0,4.909-10.363l-.008-.1c0-.076-.331-7.635-5.872-10.939a12.056,12.056,0,0,0-6.3-1.591Z" transform="translate(-2509.835 -207.286)"/><path class="cls-78" d="M3494.744,1203.449h-53.135l.345-46.21.194-24.605-.1-12.164,70.552.042.1-4.286,1.092,87.223h-19.048Zm-9.732-56.328a13.111,13.111,0,0,0-7.229-1.728c-12.98.276-14.127,9.565-14.21,14.223-.124,6.47,5.654,10.3,5.654,10.3l.179,20.776v3.014l16.671-.194.1-2.82-.1-20.513a12.814,12.814,0,0,0,5.294-11.293S3491.108,1150.756,3485.012,1147.121Z" transform="translate(-2509.835 -207.286)"/><polygon class="cls-79" points="931.225 914.183 931.165 908.011 1003.887 907.94 1003.745 914.227 931.225 914.183"/><polygon class="cls-79" points="1002.864 908.941 1002.768 913.226 932.216 913.184 932.174 909.01 1002.864 908.941"/><polygon class="cls-76" points="983.741 1065.582 983.911 995.163 996.666 995.163 996.48 1065.618 995.479 1065.627 983.741 1065.582"/><polygon class="cls-76" points="995.663 996.163 995.483 1064.614 995.483 1064.628 984.743 1064.586 984.909 996.163 995.663 996.163"/><path class="cls-80" d="M3476.783,1191.69v-21.2c-1.383-1.111-5.645-4.964-5.556-10.172.113-6.346,3.782-13.872,13.753-14.2l.293-.01.252.151c6.3,3.759,6.809,11.759,6.843,12.54a13.7,13.7,0,0,1-5.289,11.859l.1,21.029Z" transform="translate(-2509.835 -207.286)"/><path class="cls-80" d="M3491.371,1158.884a12.814,12.814,0,0,1-5.294,11.293l.1,20.513h-8.391V1170s-5.654-4.036-5.557-9.662c.1-5.446,3-12.9,12.786-13.214C3491.108,1150.756,3491.371,1158.884,3491.371,1158.884Z" transform="translate(-2509.835 -207.286)"/><polygon class="cls-79" points="958.571 982.405 977.374 982.405 977.209 987.213 958.571 987.429 958.571 982.405"/><polygon class="cls-79" points="976.338 983.404 976.242 986.224 959.571 986.418 959.571 983.404 967.948 983.404 976.338 983.404"/><path class="cls-76" d="M3373.25,1102.586c-.019-.624-.362-15.467,7.745-32.777,7.482-15.972,23.894-37,59.6-46.457l.116-.031.121,0c6.9-.129,12.728-.2,16.842-.2,2.234,0,3.984.021,5.2.061,11.092.364,27.185,11.007,27.864,11.461l-.732,1.816a137.032,137.032,0,0,0-21.776-1.626c-29.478,0-79.38,8.758-82.406,67.416l-.048.916-12.495.425Z" transform="translate(-2509.835 -207.286)"/><path class="cls-76" d="M3462.841,1024.18c10.933.359,27.341,11.293,27.341,11.293s-100.976-18.218-105.358,66.723l-10.574.36s-1.8-60.116,66.6-78.238C3450.428,1024.139,3459.025,1024.056,3462.841,1024.18Z" transform="translate(-2509.835 -207.286)"/><path class="cls-76" d="M3468.415,1191.69l-.184-21.263c-1.432-1.095-5.772-4.907-5.658-10.83.22-12.3,8.381-15.059,15.189-15.2l.437-.005a14.019,14.019,0,0,1,7.329,1.875l2.905,1.747-3.388.109c-11.049.36-11.783,10.254-11.818,12.234-.087,5.02,5.086,8.793,5.138,8.831l.417.3v22.207Z" transform="translate(-2509.835 -207.286)"/><path class="cls-76" d="M3477.783,1145.393a13.111,13.111,0,0,1,7.229,1.728c-9.786.317-12.689,7.768-12.786,13.214-.1,5.626,5.557,9.662,5.557,9.662v20.693h-8.377l-.179-20.776s-5.778-3.828-5.654-10.3C3463.656,1154.958,3464.8,1145.669,3477.783,1145.393Z" transform="translate(-2509.835 -207.286)"/><polygon class="cls-79" points="863.415 900.279 863.415 894.303 874.955 893.912 952.18 893.911 952.18 900.279 863.415 900.279"/><polygon class="cls-79" points="951.181 894.911 951.181 899.279 864.415 899.279 864.415 895.27 874.989 894.911 951.181 894.911"/><polygon class="cls-79" points="862.889 1069.621 862.889 1062.978 865.055 1062.978 865.055 1064.885 951.821 1064.885 951.821 1069.804 862.889 1069.621"/><polygon class="cls-79" points="950.821 1065.886 950.821 1068.802 863.889 1068.622 863.889 1063.978 864.055 1063.978 864.055 1065.886 874.436 1065.886 950.821 1065.886"/><polygon class="cls-76" points="863.055 1066.885 863.055 948.954 875.255 948.954 875.436 1066.885 863.055 1066.885"/><polygon class="cls-76" points="874.436 1064.973 874.436 1065.886 864.055 1065.886 864.055 1063.978 864.055 949.953 874.257 949.953 874.436 1064.973"/><path class="cls-51" d="M3595.847,1097.28c-.051,0-.1,0-.152,0a3.457,3.457,0,0,1-3.3-3.6c.725-16.68,9.239-34.194,21.186-43.581a3.456,3.456,0,0,1,4.271,5.435c-10.291,8.086-17.919,23.894-18.551,38.446A3.456,3.456,0,0,1,3595.847,1097.28Z" transform="translate(-2509.835 -207.286)"/><path class="cls-51" d="M3479.629,1097.28c-.052,0-.1,0-.153,0a3.457,3.457,0,0,1-3.3-3.6c.725-16.68,9.239-34.194,21.185-43.581a3.456,3.456,0,1,1,4.271,5.435c-10.29,8.086-17.918,23.894-18.55,38.446A3.457,3.457,0,0,1,3479.629,1097.28Z" transform="translate(-2509.835 -207.286)"/><path class="cls-51" d="M3357.137,1097.28l-.153,0a3.457,3.457,0,0,1-3.3-3.6c.725-16.68,9.239-34.194,21.185-43.581a3.456,3.456,0,1,1,4.271,5.435c-10.29,8.086-17.918,23.894-18.55,38.446A3.457,3.457,0,0,1,3357.137,1097.28Z" transform="translate(-2509.835 -207.286)"/><rect class="cls-81" x="1015.163" y="920.882" width="246.351" height="4.557"/><rect class="cls-81" x="828.896" y="920.563" width="102.965" height="3.6"/></svg>